<?xml version="1.0" encoding="utf-8" standalone="no"?>
<!DOCTYPE svg PUBLIC "-//W3C//DTD SVG 1.1//EN"
  "http://www.w3.org/Graphics/SVG/1.1/DTD/svg11.dtd">
<svg xmlns:xlink="http://www.w3.org/1999/xlink" width="783.97456pt" height="325.93225pt" viewBox="0 0 783.97456 325.93225" xmlns="http://www.w3.org/2000/svg" version="1.1">
 <metadata>
  <rdf:RDF xmlns:dc="http://purl.org/dc/elements/1.1/" xmlns:cc="http://creativecommons.org/ns#" xmlns:rdf="http://www.w3.org/1999/02/22-rdf-syntax-ns#">
   <cc:Work>
    <dc:type rdf:resource="http://purl.org/dc/dcmitype/StillImage"/>
    <dc:date>2026-07-07T12:38:02.559021</dc:date>
    <dc:format>image/svg+xml</dc:format>
    <dc:creator>
     <cc:Agent>
      <dc:title>Matplotlib v3.10.9, https://matplotlib.org/</dc:title>
     </cc:Agent>
    </dc:creator>
   </cc:Work>
  </rdf:RDF>
 </metadata>
 <defs>
  <style type="text/css">*{stroke-linejoin: round; stroke-linecap: butt}</style>
 </defs>
 <g id="figure_1">
  <g id="patch_1">
   <path d="M 0 325.93225 
L 783.97456 325.93225 
L 783.97456 0 
L 0 0 
z
" style="fill: #ffffff"/>
  </g>
  <g id="axes_1">
   <g id="patch_2">
    <path d="M 61.707813 288.376 
L 391.627078 288.376 
L 391.627078 71.16 
L 61.707813 71.16 
z
" style="fill: #ffffff"/>
   </g>
   <g id="matplotlib.axis_1">
    <g id="xtick_1">
     <g id="line2d_1">
      <path d="M 76.704143 288.376 
L 76.704143 71.16 
" clip-path="url(#pffa034b4d6)" style="fill: none; stroke: #b0b0b0; stroke-opacity: 0.3; stroke-width: 0.8; stroke-linecap: square"/>
     </g>
     <g id="line2d_2">
      <defs>
       <path id="m5a9f11fc37" d="M 0 0 
L 0 3.5 
" style="stroke: #000000; stroke-width: 0.8"/>
      </defs>
      <g>
       <use xlink:href="#m5a9f11fc37" x="76.704143" y="288.376" style="stroke: #000000; stroke-width: 0.8"/>
      </g>
     </g>
     <g id="text_1">
      <!-- 0 -->
      <g transform="translate(73.522893 302.974438) scale(0.1 -0.1)">
       <defs>
        <path id="DejaVuSans-30" d="M 2034 4250 
Q 1547 4250 1301 3770 
Q 1056 3291 1056 2328 
Q 1056 1369 1301 889 
Q 1547 409 2034 409 
Q 2525 409 2770 889 
Q 3016 1369 3016 2328 
Q 3016 3291 2770 3770 
Q 2525 4250 2034 4250 
z
M 2034 4750 
Q 2819 4750 3233 4129 
Q 3647 3509 3647 2328 
Q 3647 1150 3233 529 
Q 2819 -91 2034 -91 
Q 1250 -91 836 529 
Q 422 1150 422 2328 
Q 422 3509 836 4129 
Q 1250 4750 2034 4750 
z
" transform="scale(0.015625)"/>
       </defs>
       <use xlink:href="#DejaVuSans-30"/>
      </g>
     </g>
    </g>
    <g id="xtick_2">
     <g id="line2d_3">
      <path d="M 138.54468 288.376 
L 138.54468 71.16 
" clip-path="url(#pffa034b4d6)" style="fill: none; stroke: #b0b0b0; stroke-opacity: 0.3; stroke-width: 0.8; stroke-linecap: square"/>
     </g>
     <g id="line2d_4">
      <g>
       <use xlink:href="#m5a9f11fc37" x="138.54468" y="288.376" style="stroke: #000000; stroke-width: 0.8"/>
      </g>
     </g>
     <g id="text_2">
      <!-- 20 -->
      <g transform="translate(132.18218 302.974438) scale(0.1 -0.1)">
       <defs>
        <path id="DejaVuSans-32" d="M 1228 531 
L 3431 531 
L 3431 0 
L 469 0 
L 469 531 
Q 828 903 1448 1529 
Q 2069 2156 2228 2338 
Q 2531 2678 2651 2914 
Q 2772 3150 2772 3378 
Q 2772 3750 2511 3984 
Q 2250 4219 1831 4219 
Q 1534 4219 1204 4116 
Q 875 4013 500 3803 
L 500 4441 
Q 881 4594 1212 4672 
Q 1544 4750 1819 4750 
Q 2544 4750 2975 4387 
Q 3406 4025 3406 3419 
Q 3406 3131 3298 2873 
Q 3191 2616 2906 2266 
Q 2828 2175 2409 1742 
Q 1991 1309 1228 531 
z
" transform="scale(0.015625)"/>
       </defs>
       <use xlink:href="#DejaVuSans-32"/>
       <use xlink:href="#DejaVuSans-30" transform="translate(63.623047 0)"/>
      </g>
     </g>
    </g>
    <g id="xtick_3">
     <g id="line2d_5">
      <path d="M 200.385217 288.376 
L 200.385217 71.16 
" clip-path="url(#pffa034b4d6)" style="fill: none; stroke: #b0b0b0; stroke-opacity: 0.3; stroke-width: 0.8; stroke-linecap: square"/>
     </g>
     <g id="line2d_6">
      <g>
       <use xlink:href="#m5a9f11fc37" x="200.385217" y="288.376" style="stroke: #000000; stroke-width: 0.8"/>
      </g>
     </g>
     <g id="text_3">
      <!-- 40 -->
      <g transform="translate(194.022717 302.974438) scale(0.1 -0.1)">
       <defs>
        <path id="DejaVuSans-34" d="M 2419 4116 
L 825 1625 
L 2419 1625 
L 2419 4116 
z
M 2253 4666 
L 3047 4666 
L 3047 1625 
L 3713 1625 
L 3713 1100 
L 3047 1100 
L 3047 0 
L 2419 0 
L 2419 1100 
L 313 1100 
L 313 1709 
L 2253 4666 
z
" transform="scale(0.015625)"/>
       </defs>
       <use xlink:href="#DejaVuSans-34"/>
       <use xlink:href="#DejaVuSans-30" transform="translate(63.623047 0)"/>
      </g>
     </g>
    </g>
    <g id="xtick_4">
     <g id="line2d_7">
      <path d="M 262.225754 288.376 
L 262.225754 71.16 
" clip-path="url(#pffa034b4d6)" style="fill: none; stroke: #b0b0b0; stroke-opacity: 0.3; stroke-width: 0.8; stroke-linecap: square"/>
     </g>
     <g id="line2d_8">
      <g>
       <use xlink:href="#m5a9f11fc37" x="262.225754" y="288.376" style="stroke: #000000; stroke-width: 0.8"/>
      </g>
     </g>
     <g id="text_4">
      <!-- 60 -->
      <g transform="translate(255.863254 302.974438) scale(0.1 -0.1)">
       <defs>
        <path id="DejaVuSans-36" d="M 2113 2584 
Q 1688 2584 1439 2293 
Q 1191 2003 1191 1497 
Q 1191 994 1439 701 
Q 1688 409 2113 409 
Q 2538 409 2786 701 
Q 3034 994 3034 1497 
Q 3034 2003 2786 2293 
Q 2538 2584 2113 2584 
z
M 3366 4563 
L 3366 3988 
Q 3128 4100 2886 4159 
Q 2644 4219 2406 4219 
Q 1781 4219 1451 3797 
Q 1122 3375 1075 2522 
Q 1259 2794 1537 2939 
Q 1816 3084 2150 3084 
Q 2853 3084 3261 2657 
Q 3669 2231 3669 1497 
Q 3669 778 3244 343 
Q 2819 -91 2113 -91 
Q 1303 -91 875 529 
Q 447 1150 447 2328 
Q 447 3434 972 4092 
Q 1497 4750 2381 4750 
Q 2619 4750 2861 4703 
Q 3103 4656 3366 4563 
z
" transform="scale(0.015625)"/>
       </defs>
       <use xlink:href="#DejaVuSans-36"/>
       <use xlink:href="#DejaVuSans-30" transform="translate(63.623047 0)"/>
      </g>
     </g>
    </g>
    <g id="xtick_5">
     <g id="line2d_9">
      <path d="M 324.066291 288.376 
L 324.066291 71.16 
" clip-path="url(#pffa034b4d6)" style="fill: none; stroke: #b0b0b0; stroke-opacity: 0.3; stroke-width: 0.8; stroke-linecap: square"/>
     </g>
     <g id="line2d_10">
      <g>
       <use xlink:href="#m5a9f11fc37" x="324.066291" y="288.376" style="stroke: #000000; stroke-width: 0.8"/>
      </g>
     </g>
     <g id="text_5">
      <!-- 80 -->
      <g transform="translate(317.703791 302.974438) scale(0.1 -0.1)">
       <defs>
        <path id="DejaVuSans-38" d="M 2034 2216 
Q 1584 2216 1326 1975 
Q 1069 1734 1069 1313 
Q 1069 891 1326 650 
Q 1584 409 2034 409 
Q 2484 409 2743 651 
Q 3003 894 3003 1313 
Q 3003 1734 2745 1975 
Q 2488 2216 2034 2216 
z
M 1403 2484 
Q 997 2584 770 2862 
Q 544 3141 544 3541 
Q 544 4100 942 4425 
Q 1341 4750 2034 4750 
Q 2731 4750 3128 4425 
Q 3525 4100 3525 3541 
Q 3525 3141 3298 2862 
Q 3072 2584 2669 2484 
Q 3125 2378 3379 2068 
Q 3634 1759 3634 1313 
Q 3634 634 3220 271 
Q 2806 -91 2034 -91 
Q 1263 -91 848 271 
Q 434 634 434 1313 
Q 434 1759 690 2068 
Q 947 2378 1403 2484 
z
M 1172 3481 
Q 1172 3119 1398 2916 
Q 1625 2713 2034 2713 
Q 2441 2713 2670 2916 
Q 2900 3119 2900 3481 
Q 2900 3844 2670 4047 
Q 2441 4250 2034 4250 
Q 1625 4250 1398 4047 
Q 1172 3844 1172 3481 
z
" transform="scale(0.015625)"/>
       </defs>
       <use xlink:href="#DejaVuSans-38"/>
       <use xlink:href="#DejaVuSans-30" transform="translate(63.623047 0)"/>
      </g>
     </g>
    </g>
    <g id="xtick_6">
     <g id="line2d_11">
      <path d="M 385.906828 288.376 
L 385.906828 71.16 
" clip-path="url(#pffa034b4d6)" style="fill: none; stroke: #b0b0b0; stroke-opacity: 0.3; stroke-width: 0.8; stroke-linecap: square"/>
     </g>
     <g id="line2d_12">
      <g>
       <use xlink:href="#m5a9f11fc37" x="385.906828" y="288.376" style="stroke: #000000; stroke-width: 0.8"/>
      </g>
     </g>
     <g id="text_6">
      <!-- 100 -->
      <g transform="translate(376.363078 302.974438) scale(0.1 -0.1)">
       <defs>
        <path id="DejaVuSans-31" d="M 794 531 
L 1825 531 
L 1825 4091 
L 703 3866 
L 703 4441 
L 1819 4666 
L 2450 4666 
L 2450 531 
L 3481 531 
L 3481 0 
L 794 0 
L 794 531 
z
" transform="scale(0.015625)"/>
       </defs>
       <use xlink:href="#DejaVuSans-31"/>
       <use xlink:href="#DejaVuSans-30" transform="translate(63.623047 0)"/>
       <use xlink:href="#DejaVuSans-30" transform="translate(127.246094 0)"/>
      </g>
     </g>
    </g>
    <g id="text_7">
     <!-- time (s) -->
     <g transform="translate(207.276039 316.652562) scale(0.1 -0.1)">
      <defs>
       <path id="DejaVuSans-74" d="M 1172 4494 
L 1172 3500 
L 2356 3500 
L 2356 3053 
L 1172 3053 
L 1172 1153 
Q 1172 725 1289 603 
Q 1406 481 1766 481 
L 2356 481 
L 2356 0 
L 1766 0 
Q 1100 0 847 248 
Q 594 497 594 1153 
L 594 3053 
L 172 3053 
L 172 3500 
L 594 3500 
L 594 4494 
L 1172 4494 
z
" transform="scale(0.015625)"/>
       <path id="DejaVuSans-69" d="M 603 3500 
L 1178 3500 
L 1178 0 
L 603 0 
L 603 3500 
z
M 603 4863 
L 1178 4863 
L 1178 4134 
L 603 4134 
L 603 4863 
z
" transform="scale(0.015625)"/>
       <path id="DejaVuSans-6d" d="M 3328 2828 
Q 3544 3216 3844 3400 
Q 4144 3584 4550 3584 
Q 5097 3584 5394 3201 
Q 5691 2819 5691 2113 
L 5691 0 
L 5113 0 
L 5113 2094 
Q 5113 2597 4934 2840 
Q 4756 3084 4391 3084 
Q 3944 3084 3684 2787 
Q 3425 2491 3425 1978 
L 3425 0 
L 2847 0 
L 2847 2094 
Q 2847 2600 2669 2842 
Q 2491 3084 2119 3084 
Q 1678 3084 1418 2786 
Q 1159 2488 1159 1978 
L 1159 0 
L 581 0 
L 581 3500 
L 1159 3500 
L 1159 2956 
Q 1356 3278 1631 3431 
Q 1906 3584 2284 3584 
Q 2666 3584 2933 3390 
Q 3200 3197 3328 2828 
z
" transform="scale(0.015625)"/>
       <path id="DejaVuSans-65" d="M 3597 1894 
L 3597 1613 
L 953 1613 
Q 991 1019 1311 708 
Q 1631 397 2203 397 
Q 2534 397 2845 478 
Q 3156 559 3463 722 
L 3463 178 
Q 3153 47 2828 -22 
Q 2503 -91 2169 -91 
Q 1331 -91 842 396 
Q 353 884 353 1716 
Q 353 2575 817 3079 
Q 1281 3584 2069 3584 
Q 2775 3584 3186 3129 
Q 3597 2675 3597 1894 
z
M 3022 2063 
Q 3016 2534 2758 2815 
Q 2500 3097 2075 3097 
Q 1594 3097 1305 2825 
Q 1016 2553 972 2059 
L 3022 2063 
z
" transform="scale(0.015625)"/>
       <path id="DejaVuSans-20" transform="scale(0.015625)"/>
       <path id="DejaVuSans-28" d="M 1984 4856 
Q 1566 4138 1362 3434 
Q 1159 2731 1159 2009 
Q 1159 1288 1364 580 
Q 1569 -128 1984 -844 
L 1484 -844 
Q 1016 -109 783 600 
Q 550 1309 550 2009 
Q 550 2706 781 3412 
Q 1013 4119 1484 4856 
L 1984 4856 
z
" transform="scale(0.015625)"/>
       <path id="DejaVuSans-73" d="M 2834 3397 
L 2834 2853 
Q 2591 2978 2328 3040 
Q 2066 3103 1784 3103 
Q 1356 3103 1142 2972 
Q 928 2841 928 2578 
Q 928 2378 1081 2264 
Q 1234 2150 1697 2047 
L 1894 2003 
Q 2506 1872 2764 1633 
Q 3022 1394 3022 966 
Q 3022 478 2636 193 
Q 2250 -91 1575 -91 
Q 1294 -91 989 -36 
Q 684 19 347 128 
L 347 722 
Q 666 556 975 473 
Q 1284 391 1588 391 
Q 1994 391 2212 530 
Q 2431 669 2431 922 
Q 2431 1156 2273 1281 
Q 2116 1406 1581 1522 
L 1381 1569 
Q 847 1681 609 1914 
Q 372 2147 372 2553 
Q 372 3047 722 3315 
Q 1072 3584 1716 3584 
Q 2034 3584 2315 3537 
Q 2597 3491 2834 3397 
z
" transform="scale(0.015625)"/>
       <path id="DejaVuSans-29" d="M 513 4856 
L 1013 4856 
Q 1481 4119 1714 3412 
Q 1947 2706 1947 2009 
Q 1947 1309 1714 600 
Q 1481 -109 1013 -844 
L 513 -844 
Q 928 -128 1133 580 
Q 1338 1288 1338 2009 
Q 1338 2731 1133 3434 
Q 928 4138 513 4856 
z
" transform="scale(0.015625)"/>
      </defs>
      <use xlink:href="#DejaVuSans-74"/>
      <use xlink:href="#DejaVuSans-69" transform="translate(39.208984 0)"/>
      <use xlink:href="#DejaVuSans-6d" transform="translate(66.992188 0)"/>
      <use xlink:href="#DejaVuSans-65" transform="translate(164.404297 0)"/>
      <use xlink:href="#DejaVuSans-20" transform="translate(225.927734 0)"/>
      <use xlink:href="#DejaVuSans-28" transform="translate(257.714844 0)"/>
      <use xlink:href="#DejaVuSans-73" transform="translate(296.728516 0)"/>
      <use xlink:href="#DejaVuSans-29" transform="translate(348.828125 0)"/>
     </g>
    </g>
   </g>
   <g id="matplotlib.axis_2">
    <g id="ytick_1">
     <g id="line2d_13">
      <path d="M 61.707813 278.502545 
L 391.627078 278.502545 
" clip-path="url(#pffa034b4d6)" style="fill: none; stroke: #b0b0b0; stroke-opacity: 0.3; stroke-width: 0.8; stroke-linecap: square"/>
     </g>
     <g id="line2d_14">
      <defs>
       <path id="m76f6f175ff" d="M 0 0 
L -3.5 0 
" style="stroke: #000000; stroke-width: 0.8"/>
      </defs>
      <g>
       <use xlink:href="#m76f6f175ff" x="61.707813" y="278.502545" style="stroke: #000000; stroke-width: 0.8"/>
      </g>
     </g>
     <g id="text_8">
      <!-- −2000 -->
      <g transform="translate(20.878125 282.301764) scale(0.1 -0.1)">
       <defs>
        <path id="DejaVuSans-2212" d="M 678 2272 
L 4684 2272 
L 4684 1741 
L 678 1741 
L 678 2272 
z
" transform="scale(0.015625)"/>
       </defs>
       <use xlink:href="#DejaVuSans-2212"/>
       <use xlink:href="#DejaVuSans-32" transform="translate(83.789062 0)"/>
       <use xlink:href="#DejaVuSans-30" transform="translate(147.412109 0)"/>
       <use xlink:href="#DejaVuSans-30" transform="translate(211.035156 0)"/>
       <use xlink:href="#DejaVuSans-30" transform="translate(274.658203 0)"/>
      </g>
     </g>
    </g>
    <g id="ytick_2">
     <g id="line2d_15">
      <path d="M 61.707813 245.148646 
L 391.627078 245.148646 
" clip-path="url(#pffa034b4d6)" style="fill: none; stroke: #b0b0b0; stroke-opacity: 0.3; stroke-width: 0.8; stroke-linecap: square"/>
     </g>
     <g id="line2d_16">
      <g>
       <use xlink:href="#m76f6f175ff" x="61.707813" y="245.148646" style="stroke: #000000; stroke-width: 0.8"/>
      </g>
     </g>
     <g id="text_9">
      <!-- −1500 -->
      <g transform="translate(20.878125 248.947865) scale(0.1 -0.1)">
       <defs>
        <path id="DejaVuSans-35" d="M 691 4666 
L 3169 4666 
L 3169 4134 
L 1269 4134 
L 1269 2991 
Q 1406 3038 1543 3061 
Q 1681 3084 1819 3084 
Q 2600 3084 3056 2656 
Q 3513 2228 3513 1497 
Q 3513 744 3044 326 
Q 2575 -91 1722 -91 
Q 1428 -91 1123 -41 
Q 819 9 494 109 
L 494 744 
Q 775 591 1075 516 
Q 1375 441 1709 441 
Q 2250 441 2565 725 
Q 2881 1009 2881 1497 
Q 2881 1984 2565 2268 
Q 2250 2553 1709 2553 
Q 1456 2553 1204 2497 
Q 953 2441 691 2322 
L 691 4666 
z
" transform="scale(0.015625)"/>
       </defs>
       <use xlink:href="#DejaVuSans-2212"/>
       <use xlink:href="#DejaVuSans-31" transform="translate(83.789062 0)"/>
       <use xlink:href="#DejaVuSans-35" transform="translate(147.412109 0)"/>
       <use xlink:href="#DejaVuSans-30" transform="translate(211.035156 0)"/>
       <use xlink:href="#DejaVuSans-30" transform="translate(274.658203 0)"/>
      </g>
     </g>
    </g>
    <g id="ytick_3">
     <g id="line2d_17">
      <path d="M 61.707813 211.794747 
L 391.627078 211.794747 
" clip-path="url(#pffa034b4d6)" style="fill: none; stroke: #b0b0b0; stroke-opacity: 0.3; stroke-width: 0.8; stroke-linecap: square"/>
     </g>
     <g id="line2d_18">
      <g>
       <use xlink:href="#m76f6f175ff" x="61.707813" y="211.794747" style="stroke: #000000; stroke-width: 0.8"/>
      </g>
     </g>
     <g id="text_10">
      <!-- −1000 -->
      <g transform="translate(20.878125 215.593966) scale(0.1 -0.1)">
       <use xlink:href="#DejaVuSans-2212"/>
       <use xlink:href="#DejaVuSans-31" transform="translate(83.789062 0)"/>
       <use xlink:href="#DejaVuSans-30" transform="translate(147.412109 0)"/>
       <use xlink:href="#DejaVuSans-30" transform="translate(211.035156 0)"/>
       <use xlink:href="#DejaVuSans-30" transform="translate(274.658203 0)"/>
      </g>
     </g>
    </g>
    <g id="ytick_4">
     <g id="line2d_19">
      <path d="M 61.707813 178.440848 
L 391.627078 178.440848 
" clip-path="url(#pffa034b4d6)" style="fill: none; stroke: #b0b0b0; stroke-opacity: 0.3; stroke-width: 0.8; stroke-linecap: square"/>
     </g>
     <g id="line2d_20">
      <g>
       <use xlink:href="#m76f6f175ff" x="61.707813" y="178.440848" style="stroke: #000000; stroke-width: 0.8"/>
      </g>
     </g>
     <g id="text_11">
      <!-- −500 -->
      <g transform="translate(27.240625 182.240067) scale(0.1 -0.1)">
       <use xlink:href="#DejaVuSans-2212"/>
       <use xlink:href="#DejaVuSans-35" transform="translate(83.789062 0)"/>
       <use xlink:href="#DejaVuSans-30" transform="translate(147.412109 0)"/>
       <use xlink:href="#DejaVuSans-30" transform="translate(211.035156 0)"/>
      </g>
     </g>
    </g>
    <g id="ytick_5">
     <g id="line2d_21">
      <path d="M 61.707813 145.086949 
L 391.627078 145.086949 
" clip-path="url(#pffa034b4d6)" style="fill: none; stroke: #b0b0b0; stroke-opacity: 0.3; stroke-width: 0.8; stroke-linecap: square"/>
     </g>
     <g id="line2d_22">
      <g>
       <use xlink:href="#m76f6f175ff" x="61.707813" y="145.086949" style="stroke: #000000; stroke-width: 0.8"/>
      </g>
     </g>
     <g id="text_12">
      <!-- 0 -->
      <g transform="translate(48.345313 148.886168) scale(0.1 -0.1)">
       <use xlink:href="#DejaVuSans-30"/>
      </g>
     </g>
    </g>
    <g id="ytick_6">
     <g id="line2d_23">
      <path d="M 61.707813 111.73305 
L 391.627078 111.73305 
" clip-path="url(#pffa034b4d6)" style="fill: none; stroke: #b0b0b0; stroke-opacity: 0.3; stroke-width: 0.8; stroke-linecap: square"/>
     </g>
     <g id="line2d_24">
      <g>
       <use xlink:href="#m76f6f175ff" x="61.707813" y="111.73305" style="stroke: #000000; stroke-width: 0.8"/>
      </g>
     </g>
     <g id="text_13">
      <!-- 500 -->
      <g transform="translate(35.620312 115.532269) scale(0.1 -0.1)">
       <use xlink:href="#DejaVuSans-35"/>
       <use xlink:href="#DejaVuSans-30" transform="translate(63.623047 0)"/>
       <use xlink:href="#DejaVuSans-30" transform="translate(127.246094 0)"/>
      </g>
     </g>
    </g>
    <g id="ytick_7">
     <g id="line2d_25">
      <path d="M 61.707813 78.379151 
L 391.627078 78.379151 
" clip-path="url(#pffa034b4d6)" style="fill: none; stroke: #b0b0b0; stroke-opacity: 0.3; stroke-width: 0.8; stroke-linecap: square"/>
     </g>
     <g id="line2d_26">
      <g>
       <use xlink:href="#m76f6f175ff" x="61.707813" y="78.379151" style="stroke: #000000; stroke-width: 0.8"/>
      </g>
     </g>
     <g id="text_14">
      <!-- 1000 -->
      <g transform="translate(29.257812 82.17837) scale(0.1 -0.1)">
       <use xlink:href="#DejaVuSans-31"/>
       <use xlink:href="#DejaVuSans-30" transform="translate(63.623047 0)"/>
       <use xlink:href="#DejaVuSans-30" transform="translate(127.246094 0)"/>
       <use xlink:href="#DejaVuSans-30" transform="translate(190.869141 0)"/>
      </g>
     </g>
    </g>
    <g id="text_15">
     <!-- angle (°) -->
     <g transform="translate(14.798438 201.631281) rotate(-90) scale(0.1 -0.1)">
      <defs>
       <path id="DejaVuSans-61" d="M 2194 1759 
Q 1497 1759 1228 1600 
Q 959 1441 959 1056 
Q 959 750 1161 570 
Q 1363 391 1709 391 
Q 2188 391 2477 730 
Q 2766 1069 2766 1631 
L 2766 1759 
L 2194 1759 
z
M 3341 1997 
L 3341 0 
L 2766 0 
L 2766 531 
Q 2569 213 2275 61 
Q 1981 -91 1556 -91 
Q 1019 -91 701 211 
Q 384 513 384 1019 
Q 384 1609 779 1909 
Q 1175 2209 1959 2209 
L 2766 2209 
L 2766 2266 
Q 2766 2663 2505 2880 
Q 2244 3097 1772 3097 
Q 1472 3097 1187 3025 
Q 903 2953 641 2809 
L 641 3341 
Q 956 3463 1253 3523 
Q 1550 3584 1831 3584 
Q 2591 3584 2966 3190 
Q 3341 2797 3341 1997 
z
" transform="scale(0.015625)"/>
       <path id="DejaVuSans-6e" d="M 3513 2113 
L 3513 0 
L 2938 0 
L 2938 2094 
Q 2938 2591 2744 2837 
Q 2550 3084 2163 3084 
Q 1697 3084 1428 2787 
Q 1159 2491 1159 1978 
L 1159 0 
L 581 0 
L 581 3500 
L 1159 3500 
L 1159 2956 
Q 1366 3272 1645 3428 
Q 1925 3584 2291 3584 
Q 2894 3584 3203 3211 
Q 3513 2838 3513 2113 
z
" transform="scale(0.015625)"/>
       <path id="DejaVuSans-67" d="M 2906 1791 
Q 2906 2416 2648 2759 
Q 2391 3103 1925 3103 
Q 1463 3103 1205 2759 
Q 947 2416 947 1791 
Q 947 1169 1205 825 
Q 1463 481 1925 481 
Q 2391 481 2648 825 
Q 2906 1169 2906 1791 
z
M 3481 434 
Q 3481 -459 3084 -895 
Q 2688 -1331 1869 -1331 
Q 1566 -1331 1297 -1286 
Q 1028 -1241 775 -1147 
L 775 -588 
Q 1028 -725 1275 -790 
Q 1522 -856 1778 -856 
Q 2344 -856 2625 -561 
Q 2906 -266 2906 331 
L 2906 616 
Q 2728 306 2450 153 
Q 2172 0 1784 0 
Q 1141 0 747 490 
Q 353 981 353 1791 
Q 353 2603 747 3093 
Q 1141 3584 1784 3584 
Q 2172 3584 2450 3431 
Q 2728 3278 2906 2969 
L 2906 3500 
L 3481 3500 
L 3481 434 
z
" transform="scale(0.015625)"/>
       <path id="DejaVuSans-6c" d="M 603 4863 
L 1178 4863 
L 1178 0 
L 603 0 
L 603 4863 
z
" transform="scale(0.015625)"/>
       <path id="DejaVuSans-b0" d="M 1600 4347 
Q 1350 4347 1178 4173 
Q 1006 4000 1006 3750 
Q 1006 3503 1178 3333 
Q 1350 3163 1600 3163 
Q 1850 3163 2022 3333 
Q 2194 3503 2194 3750 
Q 2194 3997 2020 4172 
Q 1847 4347 1600 4347 
z
M 1600 4750 
Q 1800 4750 1984 4673 
Q 2169 4597 2303 4453 
Q 2447 4313 2519 4134 
Q 2591 3956 2591 3750 
Q 2591 3338 2302 3052 
Q 2013 2766 1594 2766 
Q 1172 2766 890 3047 
Q 609 3328 609 3750 
Q 609 4169 896 4459 
Q 1184 4750 1600 4750 
z
" transform="scale(0.015625)"/>
      </defs>
      <use xlink:href="#DejaVuSans-61"/>
      <use xlink:href="#DejaVuSans-6e" transform="translate(61.279297 0)"/>
      <use xlink:href="#DejaVuSans-67" transform="translate(124.658203 0)"/>
      <use xlink:href="#DejaVuSans-6c" transform="translate(188.134766 0)"/>
      <use xlink:href="#DejaVuSans-65" transform="translate(215.917969 0)"/>
      <use xlink:href="#DejaVuSans-20" transform="translate(277.441406 0)"/>
      <use xlink:href="#DejaVuSans-28" transform="translate(309.228516 0)"/>
      <use xlink:href="#DejaVuSans-b0" transform="translate(348.242188 0)"/>
      <use xlink:href="#DejaVuSans-29" transform="translate(398.242188 0)"/>
     </g>
    </g>
   </g>
   <g id="line2d_27">
    <path d="M 76.704143 98.74771 
L 79.79617 98.588946 
L 82.888196 98.430181 
L 85.980223 98.272084 
L 89.07225 98.114653 
L 92.164277 97.953888 
L 95.256304 97.79579 
L 98.348331 97.637025 
L 101.440358 97.478261 
L 104.532384 97.319496 
L 107.624411 97.162066 
L 110.716438 97.003301 
L 113.808465 96.845204 
L 116.900492 96.687106 
L 119.992519 96.528342 
L 123.084546 96.370911 
L 126.176572 96.210813 
L 129.268599 96.052048 
L 132.360626 95.893284 
L 135.452653 95.734519 
L 138.54468 95.575755 
L 141.636707 95.41699 
L 144.728734 95.258225 
L 147.82076 95.099461 
L 150.912787 94.940696 
L 154.004814 94.781932 
L 157.096841 94.623167 
L 160.188868 94.46507 
L 163.280895 94.306305 
L 166.372922 94.147541 
L 169.464948 93.988776 
L 172.556975 93.830011 
L 175.649002 93.671247 
L 178.741029 93.513149 
L 181.833056 93.354385 
L 184.925083 93.196287 
L 188.01711 93.037523 
L 191.109136 92.878758 
L 194.201163 92.719994 
L 197.29319 92.561229 
L 200.385217 92.403799 
L 203.477244 92.245034 
L 206.569271 92.08627 
L 209.661298 91.926838 
L 212.753324 91.768073 
L 215.845351 91.609309 
L 218.937378 91.451211 
L 222.029405 91.291113 
L 225.121432 91.131681 
L 228.213459 90.972916 
L 231.305486 90.813485 
L 234.397512 90.65472 
L 237.489539 90.495289 
L 240.581566 90.335857 
L 243.673593 90.177092 
L 246.76562 90.018328 
L 249.857647 89.858896 
L 252.949674 89.700799 
L 256.0417 89.542034 
L 259.133727 89.38327 
L 262.225754 89.225172 
L 265.317781 89.066408 
L 268.409808 88.90831 
L 271.501835 88.749546 
L 274.593861 88.590781 
L 277.685888 88.432684 
L 280.777915 88.273252 
L 283.869942 88.114487 
L 286.961969 87.95639 
L 290.053996 87.797625 
L 293.146023 87.638861 
L 296.238049 87.480096 
L 299.330076 87.320665 
L 302.422103 87.1619 
L 305.51413 87.003135 
L 308.606157 86.844371 
L 311.698184 86.685606 
L 314.790211 86.527509 
L 317.882237 86.369411 
L 320.974264 86.20998 
L 324.066291 86.051215 
L 327.158318 85.891116 
L 330.250345 85.732352 
L 333.342372 85.579591 
L 336.434399 85.427497 
L 339.526425 85.321432 
L 342.618452 85.18268 
L 345.710479 85.014576 
L 348.802506 84.906509 
L 351.894533 84.736404 
L 354.98656 84.582976 
L 358.078587 84.34016 
L 361.170613 83.332872 
L 364.26264 81.414356 
L 367.354667 81.033455 
L 370.446694 83.081384 
L 373.538721 83.748462 
L 376.630748 83.484299 
" clip-path="url(#pffa034b4d6)" style="fill: none; stroke: #c2410c; stroke-width: 2; stroke-linecap: square"/>
   </g>
   <g id="line2d_28">
    <path d="M 76.704143 278.502545 
L 79.79617 278.502545 
L 82.888196 278.502545 
L 85.980223 278.502545 
L 89.07225 278.502545 
L 92.164277 278.502545 
L 95.256304 278.502545 
L 98.348331 278.502545 
L 101.440358 278.502545 
L 104.532384 278.502545 
L 107.624411 278.502545 
L 110.716438 278.502545 
L 113.808465 278.502545 
L 116.900492 278.502545 
L 119.992519 278.502545 
L 123.084546 278.502545 
L 126.176572 278.502545 
L 129.268599 278.502545 
L 132.360626 278.502545 
L 135.452653 278.502545 
L 138.54468 278.502545 
L 141.636707 278.502545 
L 144.728734 278.502545 
L 147.82076 278.502545 
L 150.912787 278.502545 
L 154.004814 278.502545 
L 157.096841 278.502545 
L 160.188868 278.502545 
L 163.280895 278.502545 
L 166.372922 278.502545 
L 169.464948 278.502545 
L 172.556975 278.502545 
L 175.649002 278.502545 
L 178.741029 278.502545 
L 181.833056 278.502545 
L 184.925083 278.502545 
L 188.01711 278.502545 
L 191.109136 278.502545 
L 194.201163 278.502545 
L 197.29319 278.502545 
L 200.385217 278.502545 
L 203.477244 278.502545 
L 206.569271 278.502545 
L 209.661298 278.502545 
L 212.753324 278.502545 
L 215.845351 278.502545 
L 218.937378 278.502545 
L 222.029405 278.502545 
L 225.121432 278.502545 
L 228.213459 278.502545 
L 231.305486 278.502545 
L 234.397512 278.502545 
L 237.489539 278.502545 
L 240.581566 278.502545 
L 243.673593 278.502545 
L 246.76562 278.502545 
L 249.857647 278.502545 
L 252.949674 278.502545 
L 256.0417 278.502545 
L 259.133727 278.502545 
L 262.225754 278.502545 
L 265.317781 278.502545 
L 268.409808 278.502545 
L 271.501835 278.502545 
L 274.593861 278.502545 
L 277.685888 278.502545 
L 280.777915 278.502545 
L 283.869942 278.502545 
L 286.961969 278.502545 
L 290.053996 278.502545 
L 293.146023 278.502545 
L 296.238049 278.502545 
L 299.330076 278.502545 
L 302.422103 278.502545 
L 305.51413 278.502545 
L 308.606157 278.502545 
L 311.698184 278.502545 
L 314.790211 278.502545 
L 317.882237 278.502545 
L 320.974264 278.502545 
L 324.066291 278.502545 
L 327.158318 278.502545 
L 330.250345 278.502545 
L 333.342372 278.502545 
L 336.434399 278.502545 
L 339.526425 278.502545 
L 342.618452 278.502545 
L 345.710479 278.502545 
L 348.802506 278.502545 
L 351.894533 278.502545 
L 354.98656 278.502545 
L 358.078587 278.502545 
L 361.170613 278.502545 
L 364.26264 278.46719 
L 367.354667 278.501211 
L 370.446694 277.376518 
L 373.538721 277.67737 
L 376.630748 277.98556 
" clip-path="url(#pffa034b4d6)" style="fill: none; stroke-dasharray: 7.4,3.2; stroke-dashoffset: 0; stroke: #7c2d12; stroke-width: 2"/>
   </g>
   <g id="patch_3">
    <path d="M 61.707813 288.376 
L 61.707813 71.16 
" style="fill: none; stroke: #000000; stroke-width: 0.8; stroke-linejoin: miter; stroke-linecap: square"/>
   </g>
   <g id="patch_4">
    <path d="M 391.627078 288.376 
L 391.627078 71.16 
" style="fill: none; stroke: #000000; stroke-width: 0.8; stroke-linejoin: miter; stroke-linecap: square"/>
   </g>
   <g id="patch_5">
    <path d="M 61.707813 288.376 
L 391.627078 288.376 
" style="fill: none; stroke: #000000; stroke-width: 0.8; stroke-linejoin: miter; stroke-linecap: square"/>
   </g>
   <g id="patch_6">
    <path d="M 61.707813 71.16 
L 391.627078 71.16 
" style="fill: none; stroke: #000000; stroke-width: 0.8; stroke-linejoin: miter; stroke-linecap: square"/>
   </g>
   <g id="text_16">
    <!-- UNCALIBRATED — gyro-only attitude integral -->
    <g transform="translate(114.203383 53.962188) scale(0.1 -0.1)">
     <defs>
      <path id="DejaVuSans-55" d="M 556 4666 
L 1191 4666 
L 1191 1831 
Q 1191 1081 1462 751 
Q 1734 422 2344 422 
Q 2950 422 3222 751 
Q 3494 1081 3494 1831 
L 3494 4666 
L 4128 4666 
L 4128 1753 
Q 4128 841 3676 375 
Q 3225 -91 2344 -91 
Q 1459 -91 1007 375 
Q 556 841 556 1753 
L 556 4666 
z
" transform="scale(0.015625)"/>
      <path id="DejaVuSans-4e" d="M 628 4666 
L 1478 4666 
L 3547 763 
L 3547 4666 
L 4159 4666 
L 4159 0 
L 3309 0 
L 1241 3903 
L 1241 0 
L 628 0 
L 628 4666 
z
" transform="scale(0.015625)"/>
      <path id="DejaVuSans-43" d="M 4122 4306 
L 4122 3641 
Q 3803 3938 3442 4084 
Q 3081 4231 2675 4231 
Q 1875 4231 1450 3742 
Q 1025 3253 1025 2328 
Q 1025 1406 1450 917 
Q 1875 428 2675 428 
Q 3081 428 3442 575 
Q 3803 722 4122 1019 
L 4122 359 
Q 3791 134 3420 21 
Q 3050 -91 2638 -91 
Q 1578 -91 968 557 
Q 359 1206 359 2328 
Q 359 3453 968 4101 
Q 1578 4750 2638 4750 
Q 3056 4750 3426 4639 
Q 3797 4528 4122 4306 
z
" transform="scale(0.015625)"/>
      <path id="DejaVuSans-41" d="M 2188 4044 
L 1331 1722 
L 3047 1722 
L 2188 4044 
z
M 1831 4666 
L 2547 4666 
L 4325 0 
L 3669 0 
L 3244 1197 
L 1141 1197 
L 716 0 
L 50 0 
L 1831 4666 
z
" transform="scale(0.015625)"/>
      <path id="DejaVuSans-4c" d="M 628 4666 
L 1259 4666 
L 1259 531 
L 3531 531 
L 3531 0 
L 628 0 
L 628 4666 
z
" transform="scale(0.015625)"/>
      <path id="DejaVuSans-49" d="M 628 4666 
L 1259 4666 
L 1259 0 
L 628 0 
L 628 4666 
z
" transform="scale(0.015625)"/>
      <path id="DejaVuSans-42" d="M 1259 2228 
L 1259 519 
L 2272 519 
Q 2781 519 3026 730 
Q 3272 941 3272 1375 
Q 3272 1813 3026 2020 
Q 2781 2228 2272 2228 
L 1259 2228 
z
M 1259 4147 
L 1259 2741 
L 2194 2741 
Q 2656 2741 2882 2914 
Q 3109 3088 3109 3444 
Q 3109 3797 2882 3972 
Q 2656 4147 2194 4147 
L 1259 4147 
z
M 628 4666 
L 2241 4666 
Q 2963 4666 3353 4366 
Q 3744 4066 3744 3513 
Q 3744 3084 3544 2831 
Q 3344 2578 2956 2516 
Q 3422 2416 3680 2098 
Q 3938 1781 3938 1306 
Q 3938 681 3513 340 
Q 3088 0 2303 0 
L 628 0 
L 628 4666 
z
" transform="scale(0.015625)"/>
      <path id="DejaVuSans-52" d="M 2841 2188 
Q 3044 2119 3236 1894 
Q 3428 1669 3622 1275 
L 4263 0 
L 3584 0 
L 2988 1197 
Q 2756 1666 2539 1819 
Q 2322 1972 1947 1972 
L 1259 1972 
L 1259 0 
L 628 0 
L 628 4666 
L 2053 4666 
Q 2853 4666 3247 4331 
Q 3641 3997 3641 3322 
Q 3641 2881 3436 2590 
Q 3231 2300 2841 2188 
z
M 1259 4147 
L 1259 2491 
L 2053 2491 
Q 2509 2491 2742 2702 
Q 2975 2913 2975 3322 
Q 2975 3731 2742 3939 
Q 2509 4147 2053 4147 
L 1259 4147 
z
" transform="scale(0.015625)"/>
      <path id="DejaVuSans-54" d="M -19 4666 
L 3928 4666 
L 3928 4134 
L 2272 4134 
L 2272 0 
L 1638 0 
L 1638 4134 
L -19 4134 
L -19 4666 
z
" transform="scale(0.015625)"/>
      <path id="DejaVuSans-45" d="M 628 4666 
L 3578 4666 
L 3578 4134 
L 1259 4134 
L 1259 2753 
L 3481 2753 
L 3481 2222 
L 1259 2222 
L 1259 531 
L 3634 531 
L 3634 0 
L 628 0 
L 628 4666 
z
" transform="scale(0.015625)"/>
      <path id="DejaVuSans-44" d="M 1259 4147 
L 1259 519 
L 2022 519 
Q 2988 519 3436 956 
Q 3884 1394 3884 2338 
Q 3884 3275 3436 3711 
Q 2988 4147 2022 4147 
L 1259 4147 
z
M 628 4666 
L 1925 4666 
Q 3281 4666 3915 4102 
Q 4550 3538 4550 2338 
Q 4550 1131 3912 565 
Q 3275 0 1925 0 
L 628 0 
L 628 4666 
z
" transform="scale(0.015625)"/>
      <path id="DejaVuSans-2014" d="M 313 1978 
L 6088 1978 
L 6088 1528 
L 313 1528 
L 313 1978 
z
" transform="scale(0.015625)"/>
      <path id="DejaVuSans-79" d="M 2059 -325 
Q 1816 -950 1584 -1140 
Q 1353 -1331 966 -1331 
L 506 -1331 
L 506 -850 
L 844 -850 
Q 1081 -850 1212 -737 
Q 1344 -625 1503 -206 
L 1606 56 
L 191 3500 
L 800 3500 
L 1894 763 
L 2988 3500 
L 3597 3500 
L 2059 -325 
z
" transform="scale(0.015625)"/>
      <path id="DejaVuSans-72" d="M 2631 2963 
Q 2534 3019 2420 3045 
Q 2306 3072 2169 3072 
Q 1681 3072 1420 2755 
Q 1159 2438 1159 1844 
L 1159 0 
L 581 0 
L 581 3500 
L 1159 3500 
L 1159 2956 
Q 1341 3275 1631 3429 
Q 1922 3584 2338 3584 
Q 2397 3584 2469 3576 
Q 2541 3569 2628 3553 
L 2631 2963 
z
" transform="scale(0.015625)"/>
      <path id="DejaVuSans-6f" d="M 1959 3097 
Q 1497 3097 1228 2736 
Q 959 2375 959 1747 
Q 959 1119 1226 758 
Q 1494 397 1959 397 
Q 2419 397 2687 759 
Q 2956 1122 2956 1747 
Q 2956 2369 2687 2733 
Q 2419 3097 1959 3097 
z
M 1959 3584 
Q 2709 3584 3137 3096 
Q 3566 2609 3566 1747 
Q 3566 888 3137 398 
Q 2709 -91 1959 -91 
Q 1206 -91 779 398 
Q 353 888 353 1747 
Q 353 2609 779 3096 
Q 1206 3584 1959 3584 
z
" transform="scale(0.015625)"/>
      <path id="DejaVuSans-2d" d="M 313 2009 
L 1997 2009 
L 1997 1497 
L 313 1497 
L 313 2009 
z
" transform="scale(0.015625)"/>
      <path id="DejaVuSans-75" d="M 544 1381 
L 544 3500 
L 1119 3500 
L 1119 1403 
Q 1119 906 1312 657 
Q 1506 409 1894 409 
Q 2359 409 2629 706 
Q 2900 1003 2900 1516 
L 2900 3500 
L 3475 3500 
L 3475 0 
L 2900 0 
L 2900 538 
Q 2691 219 2414 64 
Q 2138 -91 1772 -91 
Q 1169 -91 856 284 
Q 544 659 544 1381 
z
M 1991 3584 
L 1991 3584 
z
" transform="scale(0.015625)"/>
      <path id="DejaVuSans-64" d="M 2906 2969 
L 2906 4863 
L 3481 4863 
L 3481 0 
L 2906 0 
L 2906 525 
Q 2725 213 2448 61 
Q 2172 -91 1784 -91 
Q 1150 -91 751 415 
Q 353 922 353 1747 
Q 353 2572 751 3078 
Q 1150 3584 1784 3584 
Q 2172 3584 2448 3432 
Q 2725 3281 2906 2969 
z
M 947 1747 
Q 947 1113 1208 752 
Q 1469 391 1925 391 
Q 2381 391 2643 752 
Q 2906 1113 2906 1747 
Q 2906 2381 2643 2742 
Q 2381 3103 1925 3103 
Q 1469 3103 1208 2742 
Q 947 2381 947 1747 
z
" transform="scale(0.015625)"/>
     </defs>
     <use xlink:href="#DejaVuSans-55"/>
     <use xlink:href="#DejaVuSans-4e" transform="translate(73.193359 0)"/>
     <use xlink:href="#DejaVuSans-43" transform="translate(147.998047 0)"/>
     <use xlink:href="#DejaVuSans-41" transform="translate(217.822266 0)"/>
     <use xlink:href="#DejaVuSans-4c" transform="translate(286.230469 0)"/>
     <use xlink:href="#DejaVuSans-49" transform="translate(341.943359 0)"/>
     <use xlink:href="#DejaVuSans-42" transform="translate(371.435547 0)"/>
     <use xlink:href="#DejaVuSans-52" transform="translate(440.039062 0)"/>
     <use xlink:href="#DejaVuSans-41" transform="translate(505.521484 0)"/>
     <use xlink:href="#DejaVuSans-54" transform="translate(566.179688 0)"/>
     <use xlink:href="#DejaVuSans-45" transform="translate(627.263672 0)"/>
     <use xlink:href="#DejaVuSans-44" transform="translate(690.447266 0)"/>
     <use xlink:href="#DejaVuSans-20" transform="translate(767.449219 0)"/>
     <use xlink:href="#DejaVuSans-2014" transform="translate(799.236328 0)"/>
     <use xlink:href="#DejaVuSans-20" transform="translate(899.236328 0)"/>
     <use xlink:href="#DejaVuSans-67" transform="translate(931.023438 0)"/>
     <use xlink:href="#DejaVuSans-79" transform="translate(994.5 0)"/>
     <use xlink:href="#DejaVuSans-72" transform="translate(1053.679688 0)"/>
     <use xlink:href="#DejaVuSans-6f" transform="translate(1092.542969 0)"/>
     <use xlink:href="#DejaVuSans-2d" transform="translate(1155.599609 0)"/>
     <use xlink:href="#DejaVuSans-6f" transform="translate(1193.558594 0)"/>
     <use xlink:href="#DejaVuSans-6e" transform="translate(1254.740234 0)"/>
     <use xlink:href="#DejaVuSans-6c" transform="translate(1318.119141 0)"/>
     <use xlink:href="#DejaVuSans-79" transform="translate(1345.902344 0)"/>
     <use xlink:href="#DejaVuSans-20" transform="translate(1405.082031 0)"/>
     <use xlink:href="#DejaVuSans-61" transform="translate(1436.869141 0)"/>
     <use xlink:href="#DejaVuSans-74" transform="translate(1498.148438 0)"/>
     <use xlink:href="#DejaVuSans-74" transform="translate(1537.357422 0)"/>
     <use xlink:href="#DejaVuSans-69" transform="translate(1576.566406 0)"/>
     <use xlink:href="#DejaVuSans-74" transform="translate(1604.349609 0)"/>
     <use xlink:href="#DejaVuSans-75" transform="translate(1643.558594 0)"/>
     <use xlink:href="#DejaVuSans-64" transform="translate(1706.9375 0)"/>
     <use xlink:href="#DejaVuSans-65" transform="translate(1770.414062 0)"/>
     <use xlink:href="#DejaVuSans-20" transform="translate(1831.9375 0)"/>
     <use xlink:href="#DejaVuSans-69" transform="translate(1863.724609 0)"/>
     <use xlink:href="#DejaVuSans-6e" transform="translate(1891.507812 0)"/>
     <use xlink:href="#DejaVuSans-74" transform="translate(1954.886719 0)"/>
     <use xlink:href="#DejaVuSans-65" transform="translate(1994.095703 0)"/>
     <use xlink:href="#DejaVuSans-67" transform="translate(2055.619141 0)"/>
     <use xlink:href="#DejaVuSans-72" transform="translate(2119.095703 0)"/>
     <use xlink:href="#DejaVuSans-61" transform="translate(2160.208984 0)"/>
     <use xlink:href="#DejaVuSans-6c" transform="translate(2221.488281 0)"/>
    </g>
    <!-- (real log, board stationary) -->
    <g transform="translate(159.58932 65.16) scale(0.1 -0.1)">
     <defs>
      <path id="DejaVuSans-2c" d="M 750 794 
L 1409 794 
L 1409 256 
L 897 -744 
L 494 -744 
L 750 256 
L 750 794 
z
" transform="scale(0.015625)"/>
      <path id="DejaVuSans-62" d="M 3116 1747 
Q 3116 2381 2855 2742 
Q 2594 3103 2138 3103 
Q 1681 3103 1420 2742 
Q 1159 2381 1159 1747 
Q 1159 1113 1420 752 
Q 1681 391 2138 391 
Q 2594 391 2855 752 
Q 3116 1113 3116 1747 
z
M 1159 2969 
Q 1341 3281 1617 3432 
Q 1894 3584 2278 3584 
Q 2916 3584 3314 3078 
Q 3713 2572 3713 1747 
Q 3713 922 3314 415 
Q 2916 -91 2278 -91 
Q 1894 -91 1617 61 
Q 1341 213 1159 525 
L 1159 0 
L 581 0 
L 581 4863 
L 1159 4863 
L 1159 2969 
z
" transform="scale(0.015625)"/>
     </defs>
     <use xlink:href="#DejaVuSans-28"/>
     <use xlink:href="#DejaVuSans-72" transform="translate(39.013672 0)"/>
     <use xlink:href="#DejaVuSans-65" transform="translate(77.876953 0)"/>
     <use xlink:href="#DejaVuSans-61" transform="translate(139.400391 0)"/>
     <use xlink:href="#DejaVuSans-6c" transform="translate(200.679688 0)"/>
     <use xlink:href="#DejaVuSans-20" transform="translate(228.462891 0)"/>
     <use xlink:href="#DejaVuSans-6c" transform="translate(260.25 0)"/>
     <use xlink:href="#DejaVuSans-6f" transform="translate(288.033203 0)"/>
     <use xlink:href="#DejaVuSans-67" transform="translate(349.214844 0)"/>
     <use xlink:href="#DejaVuSans-2c" transform="translate(412.691406 0)"/>
     <use xlink:href="#DejaVuSans-20" transform="translate(444.478516 0)"/>
     <use xlink:href="#DejaVuSans-62" transform="translate(476.265625 0)"/>
     <use xlink:href="#DejaVuSans-6f" transform="translate(539.742188 0)"/>
     <use xlink:href="#DejaVuSans-61" transform="translate(600.923828 0)"/>
     <use xlink:href="#DejaVuSans-72" transform="translate(662.203125 0)"/>
     <use xlink:href="#DejaVuSans-64" transform="translate(701.566406 0)"/>
     <use xlink:href="#DejaVuSans-20" transform="translate(765.042969 0)"/>
     <use xlink:href="#DejaVuSans-73" transform="translate(796.830078 0)"/>
     <use xlink:href="#DejaVuSans-74" transform="translate(848.929688 0)"/>
     <use xlink:href="#DejaVuSans-61" transform="translate(888.138672 0)"/>
     <use xlink:href="#DejaVuSans-74" transform="translate(949.417969 0)"/>
     <use xlink:href="#DejaVuSans-69" transform="translate(988.626953 0)"/>
     <use xlink:href="#DejaVuSans-6f" transform="translate(1016.410156 0)"/>
     <use xlink:href="#DejaVuSans-6e" transform="translate(1077.591797 0)"/>
     <use xlink:href="#DejaVuSans-61" transform="translate(1140.970703 0)"/>
     <use xlink:href="#DejaVuSans-72" transform="translate(1202.25 0)"/>
     <use xlink:href="#DejaVuSans-79" transform="translate(1243.363281 0)"/>
     <use xlink:href="#DejaVuSans-29" transform="translate(1302.542969 0)"/>
    </g>
   </g>
   <g id="legend_1">
    <g id="patch_7">
     <path d="M 232.324578 197.189625 
L 386.027078 197.189625 
Q 387.627078 197.189625 387.627078 195.589625 
L 387.627078 163.946375 
Q 387.627078 162.346375 386.027078 162.346375 
L 232.324578 162.346375 
Q 230.724578 162.346375 230.724578 163.946375 
L 230.724578 195.589625 
Q 230.724578 197.189625 232.324578 197.189625 
z
" style="fill: #ffffff; opacity: 0.8; stroke: #cccccc; stroke-linejoin: miter"/>
    </g>
    <g id="line2d_29">
     <path d="M 233.924578 168.825125 
L 241.924578 168.825125 
L 249.924578 168.825125 
" style="fill: none; stroke: #c2410c; stroke-width: 2; stroke-linecap: square"/>
    </g>
    <g id="text_17">
     <!-- Pitch, gyro-only (bias +2.38 °/s) -->
     <g transform="translate(256.324578 171.625125) scale(0.08 -0.08)">
      <defs>
       <path id="DejaVuSans-50" d="M 1259 4147 
L 1259 2394 
L 2053 2394 
Q 2494 2394 2734 2622 
Q 2975 2850 2975 3272 
Q 2975 3691 2734 3919 
Q 2494 4147 2053 4147 
L 1259 4147 
z
M 628 4666 
L 2053 4666 
Q 2838 4666 3239 4311 
Q 3641 3956 3641 3272 
Q 3641 2581 3239 2228 
Q 2838 1875 2053 1875 
L 1259 1875 
L 1259 0 
L 628 0 
L 628 4666 
z
" transform="scale(0.015625)"/>
       <path id="DejaVuSans-63" d="M 3122 3366 
L 3122 2828 
Q 2878 2963 2633 3030 
Q 2388 3097 2138 3097 
Q 1578 3097 1268 2742 
Q 959 2388 959 1747 
Q 959 1106 1268 751 
Q 1578 397 2138 397 
Q 2388 397 2633 464 
Q 2878 531 3122 666 
L 3122 134 
Q 2881 22 2623 -34 
Q 2366 -91 2075 -91 
Q 1284 -91 818 406 
Q 353 903 353 1747 
Q 353 2603 823 3093 
Q 1294 3584 2113 3584 
Q 2378 3584 2631 3529 
Q 2884 3475 3122 3366 
z
" transform="scale(0.015625)"/>
       <path id="DejaVuSans-68" d="M 3513 2113 
L 3513 0 
L 2938 0 
L 2938 2094 
Q 2938 2591 2744 2837 
Q 2550 3084 2163 3084 
Q 1697 3084 1428 2787 
Q 1159 2491 1159 1978 
L 1159 0 
L 581 0 
L 581 4863 
L 1159 4863 
L 1159 2956 
Q 1366 3272 1645 3428 
Q 1925 3584 2291 3584 
Q 2894 3584 3203 3211 
Q 3513 2838 3513 2113 
z
" transform="scale(0.015625)"/>
       <path id="DejaVuSans-2b" d="M 2944 4013 
L 2944 2272 
L 4684 2272 
L 4684 1741 
L 2944 1741 
L 2944 0 
L 2419 0 
L 2419 1741 
L 678 1741 
L 678 2272 
L 2419 2272 
L 2419 4013 
L 2944 4013 
z
" transform="scale(0.015625)"/>
       <path id="DejaVuSans-2e" d="M 684 794 
L 1344 794 
L 1344 0 
L 684 0 
L 684 794 
z
" transform="scale(0.015625)"/>
       <path id="DejaVuSans-33" d="M 2597 2516 
Q 3050 2419 3304 2112 
Q 3559 1806 3559 1356 
Q 3559 666 3084 287 
Q 2609 -91 1734 -91 
Q 1441 -91 1130 -33 
Q 819 25 488 141 
L 488 750 
Q 750 597 1062 519 
Q 1375 441 1716 441 
Q 2309 441 2620 675 
Q 2931 909 2931 1356 
Q 2931 1769 2642 2001 
Q 2353 2234 1838 2234 
L 1294 2234 
L 1294 2753 
L 1863 2753 
Q 2328 2753 2575 2939 
Q 2822 3125 2822 3475 
Q 2822 3834 2567 4026 
Q 2313 4219 1838 4219 
Q 1578 4219 1281 4162 
Q 984 4106 628 3988 
L 628 4550 
Q 988 4650 1302 4700 
Q 1616 4750 1894 4750 
Q 2613 4750 3031 4423 
Q 3450 4097 3450 3541 
Q 3450 3153 3228 2886 
Q 3006 2619 2597 2516 
z
" transform="scale(0.015625)"/>
       <path id="DejaVuSans-2f" d="M 1625 4666 
L 2156 4666 
L 531 -594 
L 0 -594 
L 1625 4666 
z
" transform="scale(0.015625)"/>
      </defs>
      <use xlink:href="#DejaVuSans-50"/>
      <use xlink:href="#DejaVuSans-69" transform="translate(58.052734 0)"/>
      <use xlink:href="#DejaVuSans-74" transform="translate(85.835938 0)"/>
      <use xlink:href="#DejaVuSans-63" transform="translate(125.044922 0)"/>
      <use xlink:href="#DejaVuSans-68" transform="translate(180.025391 0)"/>
      <use xlink:href="#DejaVuSans-2c" transform="translate(243.404297 0)"/>
      <use xlink:href="#DejaVuSans-20" transform="translate(275.191406 0)"/>
      <use xlink:href="#DejaVuSans-67" transform="translate(306.978516 0)"/>
      <use xlink:href="#DejaVuSans-79" transform="translate(370.455078 0)"/>
      <use xlink:href="#DejaVuSans-72" transform="translate(429.634766 0)"/>
      <use xlink:href="#DejaVuSans-6f" transform="translate(468.498047 0)"/>
      <use xlink:href="#DejaVuSans-2d" transform="translate(531.554688 0)"/>
      <use xlink:href="#DejaVuSans-6f" transform="translate(569.513672 0)"/>
      <use xlink:href="#DejaVuSans-6e" transform="translate(630.695312 0)"/>
      <use xlink:href="#DejaVuSans-6c" transform="translate(694.074219 0)"/>
      <use xlink:href="#DejaVuSans-79" transform="translate(721.857422 0)"/>
      <use xlink:href="#DejaVuSans-20" transform="translate(781.037109 0)"/>
      <use xlink:href="#DejaVuSans-28" transform="translate(812.824219 0)"/>
      <use xlink:href="#DejaVuSans-62" transform="translate(851.837891 0)"/>
      <use xlink:href="#DejaVuSans-69" transform="translate(915.314453 0)"/>
      <use xlink:href="#DejaVuSans-61" transform="translate(943.097656 0)"/>
      <use xlink:href="#DejaVuSans-73" transform="translate(1004.376953 0)"/>
      <use xlink:href="#DejaVuSans-20" transform="translate(1056.476562 0)"/>
      <use xlink:href="#DejaVuSans-2b" transform="translate(1088.263672 0)"/>
      <use xlink:href="#DejaVuSans-32" transform="translate(1172.052734 0)"/>
      <use xlink:href="#DejaVuSans-2e" transform="translate(1235.675781 0)"/>
      <use xlink:href="#DejaVuSans-33" transform="translate(1267.462891 0)"/>
      <use xlink:href="#DejaVuSans-38" transform="translate(1331.085938 0)"/>
      <use xlink:href="#DejaVuSans-20" transform="translate(1394.708984 0)"/>
      <use xlink:href="#DejaVuSans-b0" transform="translate(1426.496094 0)"/>
      <use xlink:href="#DejaVuSans-2f" transform="translate(1476.496094 0)"/>
      <use xlink:href="#DejaVuSans-73" transform="translate(1510.1875 0)"/>
      <use xlink:href="#DejaVuSans-29" transform="translate(1562.287109 0)"/>
     </g>
    </g>
    <g id="line2d_30">
     <path d="M 233.924578 185.878625 
L 241.924578 185.878625 
L 249.924578 185.878625 
" style="fill: none; stroke-dasharray: 7.4,3.2; stroke-dashoffset: 0; stroke: #7c2d12; stroke-width: 2"/>
    </g>
    <g id="text_18">
     <!-- Roll, gyro-only (bias −6.26 °/s, -->
     <g transform="translate(256.324578 183.367625) scale(0.08 -0.08)">
      <use xlink:href="#DejaVuSans-52"/>
      <use xlink:href="#DejaVuSans-6f" transform="translate(64.982422 0)"/>
      <use xlink:href="#DejaVuSans-6c" transform="translate(126.164062 0)"/>
      <use xlink:href="#DejaVuSans-6c" transform="translate(153.947266 0)"/>
      <use xlink:href="#DejaVuSans-2c" transform="translate(181.730469 0)"/>
      <use xlink:href="#DejaVuSans-20" transform="translate(213.517578 0)"/>
      <use xlink:href="#DejaVuSans-67" transform="translate(245.304688 0)"/>
      <use xlink:href="#DejaVuSans-79" transform="translate(308.78125 0)"/>
      <use xlink:href="#DejaVuSans-72" transform="translate(367.960938 0)"/>
      <use xlink:href="#DejaVuSans-6f" transform="translate(406.824219 0)"/>
      <use xlink:href="#DejaVuSans-2d" transform="translate(469.880859 0)"/>
      <use xlink:href="#DejaVuSans-6f" transform="translate(507.839844 0)"/>
      <use xlink:href="#DejaVuSans-6e" transform="translate(569.021484 0)"/>
      <use xlink:href="#DejaVuSans-6c" transform="translate(632.400391 0)"/>
      <use xlink:href="#DejaVuSans-79" transform="translate(660.183594 0)"/>
      <use xlink:href="#DejaVuSans-20" transform="translate(719.363281 0)"/>
      <use xlink:href="#DejaVuSans-28" transform="translate(751.150391 0)"/>
      <use xlink:href="#DejaVuSans-62" transform="translate(790.164062 0)"/>
      <use xlink:href="#DejaVuSans-69" transform="translate(853.640625 0)"/>
      <use xlink:href="#DejaVuSans-61" transform="translate(881.423828 0)"/>
      <use xlink:href="#DejaVuSans-73" transform="translate(942.703125 0)"/>
      <use xlink:href="#DejaVuSans-20" transform="translate(994.802734 0)"/>
      <use xlink:href="#DejaVuSans-2212" transform="translate(1026.589844 0)"/>
      <use xlink:href="#DejaVuSans-36" transform="translate(1110.378906 0)"/>
      <use xlink:href="#DejaVuSans-2e" transform="translate(1174.001953 0)"/>
      <use xlink:href="#DejaVuSans-32" transform="translate(1205.789062 0)"/>
      <use xlink:href="#DejaVuSans-36" transform="translate(1269.412109 0)"/>
      <use xlink:href="#DejaVuSans-20" transform="translate(1333.035156 0)"/>
      <use xlink:href="#DejaVuSans-b0" transform="translate(1364.822266 0)"/>
      <use xlink:href="#DejaVuSans-2f" transform="translate(1414.822266 0)"/>
      <use xlink:href="#DejaVuSans-73" transform="translate(1448.513672 0)"/>
      <use xlink:href="#DejaVuSans-2c" transform="translate(1500.613281 0)"/>
     </g>
     <!-- saturated at −2000° limit) -->
     <g transform="translate(256.324578 192.325875) scale(0.08 -0.08)">
      <use xlink:href="#DejaVuSans-73"/>
      <use xlink:href="#DejaVuSans-61" transform="translate(52.099609 0)"/>
      <use xlink:href="#DejaVuSans-74" transform="translate(113.378906 0)"/>
      <use xlink:href="#DejaVuSans-75" transform="translate(152.587891 0)"/>
      <use xlink:href="#DejaVuSans-72" transform="translate(215.966797 0)"/>
      <use xlink:href="#DejaVuSans-61" transform="translate(257.080078 0)"/>
      <use xlink:href="#DejaVuSans-74" transform="translate(318.359375 0)"/>
      <use xlink:href="#DejaVuSans-65" transform="translate(357.568359 0)"/>
      <use xlink:href="#DejaVuSans-64" transform="translate(419.091797 0)"/>
      <use xlink:href="#DejaVuSans-20" transform="translate(482.568359 0)"/>
      <use xlink:href="#DejaVuSans-61" transform="translate(514.355469 0)"/>
      <use xlink:href="#DejaVuSans-74" transform="translate(575.634766 0)"/>
      <use xlink:href="#DejaVuSans-20" transform="translate(614.84375 0)"/>
      <use xlink:href="#DejaVuSans-2212" transform="translate(646.630859 0)"/>
      <use xlink:href="#DejaVuSans-32" transform="translate(730.419922 0)"/>
      <use xlink:href="#DejaVuSans-30" transform="translate(794.042969 0)"/>
      <use xlink:href="#DejaVuSans-30" transform="translate(857.666016 0)"/>
      <use xlink:href="#DejaVuSans-30" transform="translate(921.289062 0)"/>
      <use xlink:href="#DejaVuSans-b0" transform="translate(984.912109 0)"/>
      <use xlink:href="#DejaVuSans-20" transform="translate(1034.912109 0)"/>
      <use xlink:href="#DejaVuSans-6c" transform="translate(1066.699219 0)"/>
      <use xlink:href="#DejaVuSans-69" transform="translate(1094.482422 0)"/>
      <use xlink:href="#DejaVuSans-6d" transform="translate(1122.265625 0)"/>
      <use xlink:href="#DejaVuSans-69" transform="translate(1219.677734 0)"/>
      <use xlink:href="#DejaVuSans-74" transform="translate(1247.460938 0)"/>
      <use xlink:href="#DejaVuSans-29" transform="translate(1286.669922 0)"/>
     </g>
    </g>
   </g>
  </g>
  <g id="axes_2">
   <g id="patch_8">
    <path d="M 442.992183 288.376 
L 772.911449 288.376 
L 772.911449 71.16 
L 442.992183 71.16 
z
" style="fill: #ffffff"/>
   </g>
   <g id="matplotlib.axis_3">
    <g id="xtick_7">
     <g id="line2d_31">
      <path d="M 457.988514 288.376 
L 457.988514 71.16 
" clip-path="url(#pe8e18610d7)" style="fill: none; stroke: #b0b0b0; stroke-opacity: 0.3; stroke-width: 0.8; stroke-linecap: square"/>
     </g>
     <g id="line2d_32">
      <g>
       <use xlink:href="#m5a9f11fc37" x="457.988514" y="288.376" style="stroke: #000000; stroke-width: 0.8"/>
      </g>
     </g>
     <g id="text_19">
      <!-- 0 -->
      <g transform="translate(454.807264 302.974438) scale(0.1 -0.1)">
       <use xlink:href="#DejaVuSans-30"/>
      </g>
     </g>
    </g>
    <g id="xtick_8">
     <g id="line2d_33">
      <path d="M 520.473223 288.376 
L 520.473223 71.16 
" clip-path="url(#pe8e18610d7)" style="fill: none; stroke: #b0b0b0; stroke-opacity: 0.3; stroke-width: 0.8; stroke-linecap: square"/>
     </g>
     <g id="line2d_34">
      <g>
       <use xlink:href="#m5a9f11fc37" x="520.473223" y="288.376" style="stroke: #000000; stroke-width: 0.8"/>
      </g>
     </g>
     <g id="text_20">
      <!-- 5 -->
      <g transform="translate(517.291973 302.974438) scale(0.1 -0.1)">
       <use xlink:href="#DejaVuSans-35"/>
      </g>
     </g>
    </g>
    <g id="xtick_9">
     <g id="line2d_35">
      <path d="M 582.957932 288.376 
L 582.957932 71.16 
" clip-path="url(#pe8e18610d7)" style="fill: none; stroke: #b0b0b0; stroke-opacity: 0.3; stroke-width: 0.8; stroke-linecap: square"/>
     </g>
     <g id="line2d_36">
      <g>
       <use xlink:href="#m5a9f11fc37" x="582.957932" y="288.376" style="stroke: #000000; stroke-width: 0.8"/>
      </g>
     </g>
     <g id="text_21">
      <!-- 10 -->
      <g transform="translate(576.595432 302.974438) scale(0.1 -0.1)">
       <use xlink:href="#DejaVuSans-31"/>
       <use xlink:href="#DejaVuSans-30" transform="translate(63.623047 0)"/>
      </g>
     </g>
    </g>
    <g id="xtick_10">
     <g id="line2d_37">
      <path d="M 645.442642 288.376 
L 645.442642 71.16 
" clip-path="url(#pe8e18610d7)" style="fill: none; stroke: #b0b0b0; stroke-opacity: 0.3; stroke-width: 0.8; stroke-linecap: square"/>
     </g>
     <g id="line2d_38">
      <g>
       <use xlink:href="#m5a9f11fc37" x="645.442642" y="288.376" style="stroke: #000000; stroke-width: 0.8"/>
      </g>
     </g>
     <g id="text_22">
      <!-- 15 -->
      <g transform="translate(639.080142 302.974438) scale(0.1 -0.1)">
       <use xlink:href="#DejaVuSans-31"/>
       <use xlink:href="#DejaVuSans-35" transform="translate(63.623047 0)"/>
      </g>
     </g>
    </g>
    <g id="xtick_11">
     <g id="line2d_39">
      <path d="M 707.927351 288.376 
L 707.927351 71.16 
" clip-path="url(#pe8e18610d7)" style="fill: none; stroke: #b0b0b0; stroke-opacity: 0.3; stroke-width: 0.8; stroke-linecap: square"/>
     </g>
     <g id="line2d_40">
      <g>
       <use xlink:href="#m5a9f11fc37" x="707.927351" y="288.376" style="stroke: #000000; stroke-width: 0.8"/>
      </g>
     </g>
     <g id="text_23">
      <!-- 20 -->
      <g transform="translate(701.564851 302.974438) scale(0.1 -0.1)">
       <use xlink:href="#DejaVuSans-32"/>
       <use xlink:href="#DejaVuSans-30" transform="translate(63.623047 0)"/>
      </g>
     </g>
    </g>
    <g id="xtick_12">
     <g id="line2d_41">
      <path d="M 770.41206 288.376 
L 770.41206 71.16 
" clip-path="url(#pe8e18610d7)" style="fill: none; stroke: #b0b0b0; stroke-opacity: 0.3; stroke-width: 0.8; stroke-linecap: square"/>
     </g>
     <g id="line2d_42">
      <g>
       <use xlink:href="#m5a9f11fc37" x="770.41206" y="288.376" style="stroke: #000000; stroke-width: 0.8"/>
      </g>
     </g>
     <g id="text_24">
      <!-- 25 -->
      <g transform="translate(764.04956 302.974438) scale(0.1 -0.1)">
       <use xlink:href="#DejaVuSans-32"/>
       <use xlink:href="#DejaVuSans-35" transform="translate(63.623047 0)"/>
      </g>
     </g>
    </g>
    <g id="text_25">
     <!-- time (s) -->
     <g transform="translate(588.56041 316.652562) scale(0.1 -0.1)">
      <use xlink:href="#DejaVuSans-74"/>
      <use xlink:href="#DejaVuSans-69" transform="translate(39.208984 0)"/>
      <use xlink:href="#DejaVuSans-6d" transform="translate(66.992188 0)"/>
      <use xlink:href="#DejaVuSans-65" transform="translate(164.404297 0)"/>
      <use xlink:href="#DejaVuSans-20" transform="translate(225.927734 0)"/>
      <use xlink:href="#DejaVuSans-28" transform="translate(257.714844 0)"/>
      <use xlink:href="#DejaVuSans-73" transform="translate(296.728516 0)"/>
      <use xlink:href="#DejaVuSans-29" transform="translate(348.828125 0)"/>
     </g>
    </g>
   </g>
   <g id="matplotlib.axis_4">
    <g id="ytick_8">
     <g id="line2d_43">
      <path d="M 442.992183 288.376 
L 772.911449 288.376 
" clip-path="url(#pe8e18610d7)" style="fill: none; stroke: #b0b0b0; stroke-opacity: 0.3; stroke-width: 0.8; stroke-linecap: square"/>
     </g>
     <g id="line2d_44">
      <g>
       <use xlink:href="#m76f6f175ff" x="442.992183" y="288.376" style="stroke: #000000; stroke-width: 0.8"/>
      </g>
     </g>
     <g id="text_26">
      <!-- −3 -->
      <g transform="translate(421.249996 292.175219) scale(0.1 -0.1)">
       <use xlink:href="#DejaVuSans-2212"/>
       <use xlink:href="#DejaVuSans-33" transform="translate(83.789062 0)"/>
      </g>
     </g>
    </g>
    <g id="ytick_9">
     <g id="line2d_45">
      <path d="M 442.992183 252.173333 
L 772.911449 252.173333 
" clip-path="url(#pe8e18610d7)" style="fill: none; stroke: #b0b0b0; stroke-opacity: 0.3; stroke-width: 0.8; stroke-linecap: square"/>
     </g>
     <g id="line2d_46">
      <g>
       <use xlink:href="#m76f6f175ff" x="442.992183" y="252.173333" style="stroke: #000000; stroke-width: 0.8"/>
      </g>
     </g>
     <g id="text_27">
      <!-- −2 -->
      <g transform="translate(421.249996 255.972552) scale(0.1 -0.1)">
       <use xlink:href="#DejaVuSans-2212"/>
       <use xlink:href="#DejaVuSans-32" transform="translate(83.789062 0)"/>
      </g>
     </g>
    </g>
    <g id="ytick_10">
     <g id="line2d_47">
      <path d="M 442.992183 215.970667 
L 772.911449 215.970667 
" clip-path="url(#pe8e18610d7)" style="fill: none; stroke: #b0b0b0; stroke-opacity: 0.3; stroke-width: 0.8; stroke-linecap: square"/>
     </g>
     <g id="line2d_48">
      <g>
       <use xlink:href="#m76f6f175ff" x="442.992183" y="215.970667" style="stroke: #000000; stroke-width: 0.8"/>
      </g>
     </g>
     <g id="text_28">
      <!-- −1 -->
      <g transform="translate(421.249996 219.769885) scale(0.1 -0.1)">
       <use xlink:href="#DejaVuSans-2212"/>
       <use xlink:href="#DejaVuSans-31" transform="translate(83.789062 0)"/>
      </g>
     </g>
    </g>
    <g id="ytick_11">
     <g id="line2d_49">
      <path d="M 442.992183 179.768 
L 772.911449 179.768 
" clip-path="url(#pe8e18610d7)" style="fill: none; stroke: #b0b0b0; stroke-opacity: 0.3; stroke-width: 0.8; stroke-linecap: square"/>
     </g>
     <g id="line2d_50">
      <g>
       <use xlink:href="#m76f6f175ff" x="442.992183" y="179.768" style="stroke: #000000; stroke-width: 0.8"/>
      </g>
     </g>
     <g id="text_29">
      <!-- 0 -->
      <g transform="translate(429.629683 183.567219) scale(0.1 -0.1)">
       <use xlink:href="#DejaVuSans-30"/>
      </g>
     </g>
    </g>
    <g id="ytick_12">
     <g id="line2d_51">
      <path d="M 442.992183 143.565333 
L 772.911449 143.565333 
" clip-path="url(#pe8e18610d7)" style="fill: none; stroke: #b0b0b0; stroke-opacity: 0.3; stroke-width: 0.8; stroke-linecap: square"/>
     </g>
     <g id="line2d_52">
      <g>
       <use xlink:href="#m76f6f175ff" x="442.992183" y="143.565333" style="stroke: #000000; stroke-width: 0.8"/>
      </g>
     </g>
     <g id="text_30">
      <!-- 1 -->
      <g transform="translate(429.629683 147.364552) scale(0.1 -0.1)">
       <use xlink:href="#DejaVuSans-31"/>
      </g>
     </g>
    </g>
    <g id="ytick_13">
     <g id="line2d_53">
      <path d="M 442.992183 107.362667 
L 772.911449 107.362667 
" clip-path="url(#pe8e18610d7)" style="fill: none; stroke: #b0b0b0; stroke-opacity: 0.3; stroke-width: 0.8; stroke-linecap: square"/>
     </g>
     <g id="line2d_54">
      <g>
       <use xlink:href="#m76f6f175ff" x="442.992183" y="107.362667" style="stroke: #000000; stroke-width: 0.8"/>
      </g>
     </g>
     <g id="text_31">
      <!-- 2 -->
      <g transform="translate(429.629683 111.161885) scale(0.1 -0.1)">
       <use xlink:href="#DejaVuSans-32"/>
      </g>
     </g>
    </g>
    <g id="ytick_14">
     <g id="line2d_55">
      <path d="M 442.992183 71.16 
L 772.911449 71.16 
" clip-path="url(#pe8e18610d7)" style="fill: none; stroke: #b0b0b0; stroke-opacity: 0.3; stroke-width: 0.8; stroke-linecap: square"/>
     </g>
     <g id="line2d_56">
      <g>
       <use xlink:href="#m76f6f175ff" x="442.992183" y="71.16" style="stroke: #000000; stroke-width: 0.8"/>
      </g>
     </g>
     <g id="text_32">
      <!-- 3 -->
      <g transform="translate(429.629683 74.959219) scale(0.1 -0.1)">
       <use xlink:href="#DejaVuSans-33"/>
      </g>
     </g>
    </g>
    <g id="text_33">
     <!-- drift since t₀ (°) -->
     <g transform="translate(415.170308 218.141438) rotate(-90) scale(0.1 -0.1)">
      <defs>
       <path id="DejaVuSans-66" d="M 2375 4863 
L 2375 4384 
L 1825 4384 
Q 1516 4384 1395 4259 
Q 1275 4134 1275 3809 
L 1275 3500 
L 2222 3500 
L 2222 3053 
L 1275 3053 
L 1275 0 
L 697 0 
L 697 3053 
L 147 3053 
L 147 3500 
L 697 3500 
L 697 3744 
Q 697 4328 969 4595 
Q 1241 4863 1831 4863 
L 2375 4863 
z
" transform="scale(0.015625)"/>
       <path id="DejaVuSans-2080" d="M 1781 2091 
Q 1625 2360 1309 2360 
Q 994 2360 838 2091 
Q 678 1822 678 1285 
Q 678 744 838 476 
Q 994 207 1309 207 
Q 1625 207 1781 476 
Q 1941 744 1941 1285 
Q 1941 1822 1781 2091 
z
M 1309 2638 
Q 1813 2638 2078 2291 
Q 2344 1944 2344 1285 
Q 2344 622 2078 275 
Q 1813 -71 1309 -71 
Q 803 -71 537 275 
Q 272 622 272 1285 
Q 272 1944 537 2291 
Q 803 2638 1309 2638 
z
" transform="scale(0.015625)"/>
      </defs>
      <use xlink:href="#DejaVuSans-64"/>
      <use xlink:href="#DejaVuSans-72" transform="translate(63.476562 0)"/>
      <use xlink:href="#DejaVuSans-69" transform="translate(104.589844 0)"/>
      <use xlink:href="#DejaVuSans-66" transform="translate(132.373047 0)"/>
      <use xlink:href="#DejaVuSans-74" transform="translate(165.828125 0)"/>
      <use xlink:href="#DejaVuSans-20" transform="translate(205.037109 0)"/>
      <use xlink:href="#DejaVuSans-73" transform="translate(236.824219 0)"/>
      <use xlink:href="#DejaVuSans-69" transform="translate(288.923828 0)"/>
      <use xlink:href="#DejaVuSans-6e" transform="translate(316.707031 0)"/>
      <use xlink:href="#DejaVuSans-63" transform="translate(380.085938 0)"/>
      <use xlink:href="#DejaVuSans-65" transform="translate(435.066406 0)"/>
      <use xlink:href="#DejaVuSans-20" transform="translate(496.589844 0)"/>
      <use xlink:href="#DejaVuSans-74" transform="translate(528.376953 0)"/>
      <use xlink:href="#DejaVuSans-2080" transform="translate(567.585938 0)"/>
      <use xlink:href="#DejaVuSans-20" transform="translate(607.673828 0)"/>
      <use xlink:href="#DejaVuSans-28" transform="translate(639.460938 0)"/>
      <use xlink:href="#DejaVuSans-b0" transform="translate(678.474609 0)"/>
      <use xlink:href="#DejaVuSans-29" transform="translate(728.474609 0)"/>
     </g>
    </g>
   </g>
   <g id="line2d_57">
    <path d="M 457.988514 179.768 
L 470.485456 180.130027 
L 482.982397 180.130027 
L 495.479339 180.85408 
L 507.976281 181.216107 
L 520.473223 181.578133 
L 532.970165 182.664213 
L 545.467107 183.02624 
L 557.964049 183.388267 
L 570.460991 183.750293 
L 582.957932 184.11232 
L 595.454874 184.11232 
L 607.951816 184.836373 
L 620.448758 185.1984 
L 632.9457 185.1984 
L 645.442642 185.922453 
L 657.939584 185.922453 
L 670.436525 186.28448 
L 682.933467 186.646507 
L 695.430409 186.646507 
L 707.927351 187.008533 
L 720.424293 187.732587 
L 732.921235 188.094613 
L 745.418177 188.094613 
L 757.915119 188.45664 
" clip-path="url(#pe8e18610d7)" style="fill: none; stroke: #166534; stroke-width: 2; stroke-linecap: square"/>
   </g>
   <g id="line2d_58">
    <path d="M 457.988514 179.768 
L 470.485456 180.130027 
L 482.982397 179.405973 
L 495.479339 179.043947 
L 507.976281 179.405973 
L 520.473223 181.578133 
L 532.970165 178.68192 
L 545.467107 180.492053 
L 557.964049 179.405973 
L 570.460991 178.319893 
L 582.957932 177.957867 
L 595.454874 177.59584 
L 607.951816 177.59584 
L 620.448758 177.233813 
L 632.9457 177.233813 
L 645.442642 177.233813 
L 657.939584 177.233813 
L 670.436525 176.871787 
L 682.933467 177.233813 
L 695.430409 177.233813 
L 707.927351 176.871787 
L 720.424293 176.871787 
L 732.921235 176.50976 
L 745.418177 176.147733 
L 757.915119 176.147733 
" clip-path="url(#pe8e18610d7)" style="fill: none; stroke-dasharray: 7.4,3.2; stroke-dashoffset: 0; stroke: #15803d; stroke-width: 2"/>
   </g>
   <g id="patch_9">
    <path d="M 442.992183 288.376 
L 442.992183 71.16 
" style="fill: none; stroke: #000000; stroke-width: 0.8; stroke-linejoin: miter; stroke-linecap: square"/>
   </g>
   <g id="patch_10">
    <path d="M 772.911449 288.376 
L 772.911449 71.16 
" style="fill: none; stroke: #000000; stroke-width: 0.8; stroke-linejoin: miter; stroke-linecap: square"/>
   </g>
   <g id="patch_11">
    <path d="M 442.992183 288.376 
L 772.911449 288.376 
" style="fill: none; stroke: #000000; stroke-width: 0.8; stroke-linejoin: miter; stroke-linecap: square"/>
   </g>
   <g id="patch_12">
    <path d="M 442.992183 71.16 
L 772.911449 71.16 
" style="fill: none; stroke: #000000; stroke-width: 0.8; stroke-linejoin: miter; stroke-linecap: square"/>
   </g>
   <g id="text_34">
    <!-- CALIBRATED — same integrator after boot bias -->
    <g transform="translate(490.551035 53.962188) scale(0.1 -0.1)">
     <use xlink:href="#DejaVuSans-43"/>
     <use xlink:href="#DejaVuSans-41" transform="translate(69.824219 0)"/>
     <use xlink:href="#DejaVuSans-4c" transform="translate(138.232422 0)"/>
     <use xlink:href="#DejaVuSans-49" transform="translate(193.945312 0)"/>
     <use xlink:href="#DejaVuSans-42" transform="translate(223.4375 0)"/>
     <use xlink:href="#DejaVuSans-52" transform="translate(292.041016 0)"/>
     <use xlink:href="#DejaVuSans-41" transform="translate(357.523438 0)"/>
     <use xlink:href="#DejaVuSans-54" transform="translate(418.181641 0)"/>
     <use xlink:href="#DejaVuSans-45" transform="translate(479.265625 0)"/>
     <use xlink:href="#DejaVuSans-44" transform="translate(542.449219 0)"/>
     <use xlink:href="#DejaVuSans-20" transform="translate(619.451172 0)"/>
     <use xlink:href="#DejaVuSans-2014" transform="translate(651.238281 0)"/>
     <use xlink:href="#DejaVuSans-20" transform="translate(751.238281 0)"/>
     <use xlink:href="#DejaVuSans-73" transform="translate(783.025391 0)"/>
     <use xlink:href="#DejaVuSans-61" transform="translate(835.125 0)"/>
     <use xlink:href="#DejaVuSans-6d" transform="translate(896.404297 0)"/>
     <use xlink:href="#DejaVuSans-65" transform="translate(993.816406 0)"/>
     <use xlink:href="#DejaVuSans-20" transform="translate(1055.339844 0)"/>
     <use xlink:href="#DejaVuSans-69" transform="translate(1087.126953 0)"/>
     <use xlink:href="#DejaVuSans-6e" transform="translate(1114.910156 0)"/>
     <use xlink:href="#DejaVuSans-74" transform="translate(1178.289062 0)"/>
     <use xlink:href="#DejaVuSans-65" transform="translate(1217.498047 0)"/>
     <use xlink:href="#DejaVuSans-67" transform="translate(1279.021484 0)"/>
     <use xlink:href="#DejaVuSans-72" transform="translate(1342.498047 0)"/>
     <use xlink:href="#DejaVuSans-61" transform="translate(1383.611328 0)"/>
     <use xlink:href="#DejaVuSans-74" transform="translate(1444.890625 0)"/>
     <use xlink:href="#DejaVuSans-6f" transform="translate(1484.099609 0)"/>
     <use xlink:href="#DejaVuSans-72" transform="translate(1545.28125 0)"/>
     <use xlink:href="#DejaVuSans-20" transform="translate(1586.394531 0)"/>
     <use xlink:href="#DejaVuSans-61" transform="translate(1618.181641 0)"/>
     <use xlink:href="#DejaVuSans-66" transform="translate(1679.460938 0)"/>
     <use xlink:href="#DejaVuSans-74" transform="translate(1712.916016 0)"/>
     <use xlink:href="#DejaVuSans-65" transform="translate(1752.125 0)"/>
     <use xlink:href="#DejaVuSans-72" transform="translate(1813.648438 0)"/>
     <use xlink:href="#DejaVuSans-20" transform="translate(1854.761719 0)"/>
     <use xlink:href="#DejaVuSans-62" transform="translate(1886.548828 0)"/>
     <use xlink:href="#DejaVuSans-6f" transform="translate(1950.025391 0)"/>
     <use xlink:href="#DejaVuSans-6f" transform="translate(2011.207031 0)"/>
     <use xlink:href="#DejaVuSans-74" transform="translate(2072.388672 0)"/>
     <use xlink:href="#DejaVuSans-20" transform="translate(2111.597656 0)"/>
     <use xlink:href="#DejaVuSans-62" transform="translate(2143.384766 0)"/>
     <use xlink:href="#DejaVuSans-69" transform="translate(2206.861328 0)"/>
     <use xlink:href="#DejaVuSans-61" transform="translate(2234.644531 0)"/>
     <use xlink:href="#DejaVuSans-73" transform="translate(2295.923828 0)"/>
    </g>
    <!-- calibration (N=1000 @ 1 kHz) -->
    <g transform="translate(533.115097 65.16) scale(0.1 -0.1)">
     <defs>
      <path id="DejaVuSans-3d" d="M 678 2906 
L 4684 2906 
L 4684 2381 
L 678 2381 
L 678 2906 
z
M 678 1631 
L 4684 1631 
L 4684 1100 
L 678 1100 
L 678 1631 
z
" transform="scale(0.015625)"/>
      <path id="DejaVuSans-40" d="M 2381 1678 
Q 2381 1231 2603 976 
Q 2825 722 3213 722 
Q 3597 722 3817 978 
Q 4038 1234 4038 1678 
Q 4038 2116 3813 2373 
Q 3588 2631 3206 2631 
Q 2828 2631 2604 2375 
Q 2381 2119 2381 1678 
z
M 4084 744 
Q 3897 503 3655 389 
Q 3413 275 3091 275 
Q 2553 275 2217 664 
Q 1881 1053 1881 1678 
Q 1881 2303 2218 2693 
Q 2556 3084 3091 3084 
Q 3413 3084 3656 2967 
Q 3900 2850 4084 2613 
L 4084 3022 
L 4531 3022 
L 4531 722 
Q 4988 791 5245 1139 
Q 5503 1488 5503 2041 
Q 5503 2375 5404 2669 
Q 5306 2963 5106 3213 
Q 4781 3622 4314 3839 
Q 3847 4056 3297 4056 
Q 2913 4056 2559 3954 
Q 2206 3853 1906 3653 
Q 1416 3334 1139 2817 
Q 863 2300 863 1697 
Q 863 1200 1042 765 
Q 1222 331 1563 0 
Q 1891 -325 2322 -495 
Q 2753 -666 3244 -666 
Q 3647 -666 4036 -530 
Q 4425 -394 4750 -141 
L 5031 -488 
Q 4641 -791 4180 -952 
Q 3719 -1113 3244 -1113 
Q 2666 -1113 2153 -908 
Q 1641 -703 1241 -313 
Q 841 78 631 592 
Q 422 1106 422 1697 
Q 422 2266 634 2781 
Q 847 3297 1241 3688 
Q 1644 4084 2172 4295 
Q 2700 4506 3291 4506 
Q 3953 4506 4520 4234 
Q 5088 3963 5472 3463 
Q 5706 3156 5829 2797 
Q 5953 2438 5953 2053 
Q 5953 1231 5456 756 
Q 4959 281 4084 263 
L 4084 744 
z
" transform="scale(0.015625)"/>
      <path id="DejaVuSans-6b" d="M 581 4863 
L 1159 4863 
L 1159 1991 
L 2875 3500 
L 3609 3500 
L 1753 1863 
L 3688 0 
L 2938 0 
L 1159 1709 
L 1159 0 
L 581 0 
L 581 4863 
z
" transform="scale(0.015625)"/>
      <path id="DejaVuSans-48" d="M 628 4666 
L 1259 4666 
L 1259 2753 
L 3553 2753 
L 3553 4666 
L 4184 4666 
L 4184 0 
L 3553 0 
L 3553 2222 
L 1259 2222 
L 1259 0 
L 628 0 
L 628 4666 
z
" transform="scale(0.015625)"/>
      <path id="DejaVuSans-7a" d="M 353 3500 
L 3084 3500 
L 3084 2975 
L 922 459 
L 3084 459 
L 3084 0 
L 275 0 
L 275 525 
L 2438 3041 
L 353 3041 
L 353 3500 
z
" transform="scale(0.015625)"/>
     </defs>
     <use xlink:href="#DejaVuSans-63"/>
     <use xlink:href="#DejaVuSans-61" transform="translate(54.980469 0)"/>
     <use xlink:href="#DejaVuSans-6c" transform="translate(116.259766 0)"/>
     <use xlink:href="#DejaVuSans-69" transform="translate(144.042969 0)"/>
     <use xlink:href="#DejaVuSans-62" transform="translate(171.826172 0)"/>
     <use xlink:href="#DejaVuSans-72" transform="translate(235.302734 0)"/>
     <use xlink:href="#DejaVuSans-61" transform="translate(276.416016 0)"/>
     <use xlink:href="#DejaVuSans-74" transform="translate(337.695312 0)"/>
     <use xlink:href="#DejaVuSans-69" transform="translate(376.904297 0)"/>
     <use xlink:href="#DejaVuSans-6f" transform="translate(404.6875 0)"/>
     <use xlink:href="#DejaVuSans-6e" transform="translate(465.869141 0)"/>
     <use xlink:href="#DejaVuSans-20" transform="translate(529.248047 0)"/>
     <use xlink:href="#DejaVuSans-28" transform="translate(561.035156 0)"/>
     <use xlink:href="#DejaVuSans-4e" transform="translate(600.048828 0)"/>
     <use xlink:href="#DejaVuSans-3d" transform="translate(674.853516 0)"/>
     <use xlink:href="#DejaVuSans-31" transform="translate(758.642578 0)"/>
     <use xlink:href="#DejaVuSans-30" transform="translate(822.265625 0)"/>
     <use xlink:href="#DejaVuSans-30" transform="translate(885.888672 0)"/>
     <use xlink:href="#DejaVuSans-30" transform="translate(949.511719 0)"/>
     <use xlink:href="#DejaVuSans-20" transform="translate(1013.134766 0)"/>
     <use xlink:href="#DejaVuSans-40" transform="translate(1044.921875 0)"/>
     <use xlink:href="#DejaVuSans-20" transform="translate(1144.921875 0)"/>
     <use xlink:href="#DejaVuSans-31" transform="translate(1176.708984 0)"/>
     <use xlink:href="#DejaVuSans-20" transform="translate(1240.332031 0)"/>
     <use xlink:href="#DejaVuSans-6b" transform="translate(1272.119141 0)"/>
     <use xlink:href="#DejaVuSans-48" transform="translate(1330.029297 0)"/>
     <use xlink:href="#DejaVuSans-7a" transform="translate(1405.224609 0)"/>
     <use xlink:href="#DejaVuSans-29" transform="translate(1457.714844 0)"/>
    </g>
   </g>
   <g id="legend_2">
    <g id="patch_13">
     <path d="M 648.495199 101.045 
L 767.311449 101.045 
Q 768.911449 101.045 768.911449 99.445 
L 768.911449 76.76 
Q 768.911449 75.16 767.311449 75.16 
L 648.495199 75.16 
Q 646.895199 75.16 646.895199 76.76 
L 646.895199 99.445 
Q 646.895199 101.045 648.495199 101.045 
z
" style="fill: #ffffff; opacity: 0.8; stroke: #cccccc; stroke-linejoin: miter"/>
    </g>
    <g id="line2d_59">
     <path d="M 650.095199 81.63875 
L 658.095199 81.63875 
L 666.095199 81.63875 
" style="fill: none; stroke: #166534; stroke-width: 2; stroke-linecap: square"/>
    </g>
    <g id="text_35">
     <!-- Roll drift ≈ −0.011 °/s -->
     <g transform="translate(672.495199 84.43875) scale(0.08 -0.08)">
      <defs>
       <path id="DejaVuSans-2248" d="M 4684 1947 
L 4684 1388 
Q 4356 1144 4076 1036 
Q 3797 928 3494 928 
Q 3150 928 2694 1113 
Q 2663 1125 2641 1134 
Q 2622 1141 2575 1159 
Q 2091 1350 1797 1350 
Q 1522 1350 1253 1231 
Q 984 1113 678 850 
L 678 1409 
Q 1006 1653 1286 1761 
Q 1566 1869 1869 1869 
Q 2213 1869 2672 1684 
Q 2706 1669 2722 1663 
Q 2741 1656 2788 1638 
Q 3272 1447 3566 1447 
Q 3834 1447 4098 1564 
Q 4363 1681 4684 1947 
z
M 4684 3163 
L 4684 2606 
Q 4356 2359 4076 2251 
Q 3797 2144 3494 2144 
Q 3150 2144 2694 2328 
Q 2663 2341 2641 2350 
Q 2622 2356 2575 2375 
Q 2091 2566 1797 2566 
Q 1522 2566 1253 2447 
Q 984 2328 678 2069 
L 678 2625 
Q 1006 2869 1286 2976 
Q 1566 3084 1869 3084 
Q 2213 3084 2672 2900 
Q 2703 2888 2719 2881 
Q 2741 2872 2788 2853 
Q 3272 2663 3566 2663 
Q 3834 2663 4098 2780 
Q 4363 2897 4684 3163 
z
" transform="scale(0.015625)"/>
      </defs>
      <use xlink:href="#DejaVuSans-52"/>
      <use xlink:href="#DejaVuSans-6f" transform="translate(64.982422 0)"/>
      <use xlink:href="#DejaVuSans-6c" transform="translate(126.164062 0)"/>
      <use xlink:href="#DejaVuSans-6c" transform="translate(153.947266 0)"/>
      <use xlink:href="#DejaVuSans-20" transform="translate(181.730469 0)"/>
      <use xlink:href="#DejaVuSans-64" transform="translate(213.517578 0)"/>
      <use xlink:href="#DejaVuSans-72" transform="translate(276.994141 0)"/>
      <use xlink:href="#DejaVuSans-69" transform="translate(318.107422 0)"/>
      <use xlink:href="#DejaVuSans-66" transform="translate(345.890625 0)"/>
      <use xlink:href="#DejaVuSans-74" transform="translate(379.345703 0)"/>
      <use xlink:href="#DejaVuSans-20" transform="translate(418.554688 0)"/>
      <use xlink:href="#DejaVuSans-2248" transform="translate(450.341797 0)"/>
      <use xlink:href="#DejaVuSans-20" transform="translate(534.130859 0)"/>
      <use xlink:href="#DejaVuSans-2212" transform="translate(565.917969 0)"/>
      <use xlink:href="#DejaVuSans-30" transform="translate(649.707031 0)"/>
      <use xlink:href="#DejaVuSans-2e" transform="translate(713.330078 0)"/>
      <use xlink:href="#DejaVuSans-30" transform="translate(745.117188 0)"/>
      <use xlink:href="#DejaVuSans-31" transform="translate(808.740234 0)"/>
      <use xlink:href="#DejaVuSans-31" transform="translate(872.363281 0)"/>
      <use xlink:href="#DejaVuSans-20" transform="translate(935.986328 0)"/>
      <use xlink:href="#DejaVuSans-b0" transform="translate(967.773438 0)"/>
      <use xlink:href="#DejaVuSans-2f" transform="translate(1017.773438 0)"/>
      <use xlink:href="#DejaVuSans-73" transform="translate(1051.464844 0)"/>
     </g>
    </g>
    <g id="line2d_60">
     <path d="M 650.095199 93.38125 
L 658.095199 93.38125 
L 666.095199 93.38125 
" style="fill: none; stroke-dasharray: 7.4,3.2; stroke-dashoffset: 0; stroke: #15803d; stroke-width: 2"/>
    </g>
    <g id="text_36">
     <!-- Pitch drift ≈ +0.004 °/s -->
     <g transform="translate(672.495199 96.18125) scale(0.08 -0.08)">
      <use xlink:href="#DejaVuSans-50"/>
      <use xlink:href="#DejaVuSans-69" transform="translate(58.052734 0)"/>
      <use xlink:href="#DejaVuSans-74" transform="translate(85.835938 0)"/>
      <use xlink:href="#DejaVuSans-63" transform="translate(125.044922 0)"/>
      <use xlink:href="#DejaVuSans-68" transform="translate(180.025391 0)"/>
      <use xlink:href="#DejaVuSans-20" transform="translate(243.404297 0)"/>
      <use xlink:href="#DejaVuSans-64" transform="translate(275.191406 0)"/>
      <use xlink:href="#DejaVuSans-72" transform="translate(338.667969 0)"/>
      <use xlink:href="#DejaVuSans-69" transform="translate(379.78125 0)"/>
      <use xlink:href="#DejaVuSans-66" transform="translate(407.564453 0)"/>
      <use xlink:href="#DejaVuSans-74" transform="translate(441.019531 0)"/>
      <use xlink:href="#DejaVuSans-20" transform="translate(480.228516 0)"/>
      <use xlink:href="#DejaVuSans-2248" transform="translate(512.015625 0)"/>
      <use xlink:href="#DejaVuSans-20" transform="translate(595.804688 0)"/>
      <use xlink:href="#DejaVuSans-2b" transform="translate(627.591797 0)"/>
      <use xlink:href="#DejaVuSans-30" transform="translate(711.380859 0)"/>
      <use xlink:href="#DejaVuSans-2e" transform="translate(775.003906 0)"/>
      <use xlink:href="#DejaVuSans-30" transform="translate(806.791016 0)"/>
      <use xlink:href="#DejaVuSans-30" transform="translate(870.414062 0)"/>
      <use xlink:href="#DejaVuSans-34" transform="translate(934.037109 0)"/>
      <use xlink:href="#DejaVuSans-20" transform="translate(997.660156 0)"/>
      <use xlink:href="#DejaVuSans-b0" transform="translate(1029.447266 0)"/>
      <use xlink:href="#DejaVuSans-2f" transform="translate(1079.447266 0)"/>
      <use xlink:href="#DejaVuSans-73" transform="translate(1113.138672 0)"/>
     </g>
    </g>
   </g>
  </g>
  <g id="text_37">
   <!-- Gyro bias calibration: ~560× drift reduction (TUGRUL, clone MPU-9250 die, measured) -->
   <g transform="translate(153.095 15.558281) scale(0.11 -0.11)">
    <defs>
     <path id="DejaVuSans-47" d="M 3809 666 
L 3809 1919 
L 2778 1919 
L 2778 2438 
L 4434 2438 
L 4434 434 
Q 4069 175 3628 42 
Q 3188 -91 2688 -91 
Q 1594 -91 976 548 
Q 359 1188 359 2328 
Q 359 3472 976 4111 
Q 1594 4750 2688 4750 
Q 3144 4750 3555 4637 
Q 3966 4525 4313 4306 
L 4313 3634 
Q 3963 3931 3569 4081 
Q 3175 4231 2741 4231 
Q 1884 4231 1454 3753 
Q 1025 3275 1025 2328 
Q 1025 1384 1454 906 
Q 1884 428 2741 428 
Q 3075 428 3337 486 
Q 3600 544 3809 666 
z
" transform="scale(0.015625)"/>
     <path id="DejaVuSans-3a" d="M 750 794 
L 1409 794 
L 1409 0 
L 750 0 
L 750 794 
z
M 750 3309 
L 1409 3309 
L 1409 2516 
L 750 2516 
L 750 3309 
z
" transform="scale(0.015625)"/>
     <path id="DejaVuSans-7e" d="M 4684 2553 
L 4684 1997 
Q 4356 1750 4076 1644 
Q 3797 1538 3494 1538 
Q 3150 1538 2694 1722 
Q 2659 1734 2644 1741 
Q 2622 1750 2575 1766 
Q 2091 1959 1797 1959 
Q 1522 1959 1253 1839 
Q 984 1719 678 1459 
L 678 2016 
Q 1006 2263 1286 2370 
Q 1566 2478 1869 2478 
Q 2213 2478 2672 2291 
Q 2703 2278 2719 2272 
Q 2744 2263 2788 2247 
Q 3272 2053 3566 2053 
Q 3834 2053 4098 2172 
Q 4363 2291 4684 2553 
z
" transform="scale(0.015625)"/>
     <path id="DejaVuSans-d7" d="M 4488 3438 
L 3059 2003 
L 4488 575 
L 4116 197 
L 2681 1631 
L 1247 197 
L 878 575 
L 2303 2003 
L 878 3438 
L 1247 3816 
L 2681 2381 
L 4116 3816 
L 4488 3438 
z
" transform="scale(0.015625)"/>
     <path id="DejaVuSans-4d" d="M 628 4666 
L 1569 4666 
L 2759 1491 
L 3956 4666 
L 4897 4666 
L 4897 0 
L 4281 0 
L 4281 4097 
L 3078 897 
L 2444 897 
L 1241 4097 
L 1241 0 
L 628 0 
L 628 4666 
z
" transform="scale(0.015625)"/>
     <path id="DejaVuSans-39" d="M 703 97 
L 703 672 
Q 941 559 1184 500 
Q 1428 441 1663 441 
Q 2288 441 2617 861 
Q 2947 1281 2994 2138 
Q 2813 1869 2534 1725 
Q 2256 1581 1919 1581 
Q 1219 1581 811 2004 
Q 403 2428 403 3163 
Q 403 3881 828 4315 
Q 1253 4750 1959 4750 
Q 2769 4750 3195 4129 
Q 3622 3509 3622 2328 
Q 3622 1225 3098 567 
Q 2575 -91 1691 -91 
Q 1453 -91 1209 -44 
Q 966 3 703 97 
z
M 1959 2075 
Q 2384 2075 2632 2365 
Q 2881 2656 2881 3163 
Q 2881 3666 2632 3958 
Q 2384 4250 1959 4250 
Q 1534 4250 1286 3958 
Q 1038 3666 1038 3163 
Q 1038 2656 1286 2365 
Q 1534 2075 1959 2075 
z
" transform="scale(0.015625)"/>
    </defs>
    <use xlink:href="#DejaVuSans-47"/>
    <use xlink:href="#DejaVuSans-79" transform="translate(77.490234 0)"/>
    <use xlink:href="#DejaVuSans-72" transform="translate(136.669922 0)"/>
    <use xlink:href="#DejaVuSans-6f" transform="translate(175.533203 0)"/>
    <use xlink:href="#DejaVuSans-20" transform="translate(236.714844 0)"/>
    <use xlink:href="#DejaVuSans-62" transform="translate(268.501953 0)"/>
    <use xlink:href="#DejaVuSans-69" transform="translate(331.978516 0)"/>
    <use xlink:href="#DejaVuSans-61" transform="translate(359.761719 0)"/>
    <use xlink:href="#DejaVuSans-73" transform="translate(421.041016 0)"/>
    <use xlink:href="#DejaVuSans-20" transform="translate(473.140625 0)"/>
    <use xlink:href="#DejaVuSans-63" transform="translate(504.927734 0)"/>
    <use xlink:href="#DejaVuSans-61" transform="translate(559.908203 0)"/>
    <use xlink:href="#DejaVuSans-6c" transform="translate(621.1875 0)"/>
    <use xlink:href="#DejaVuSans-69" transform="translate(648.970703 0)"/>
    <use xlink:href="#DejaVuSans-62" transform="translate(676.753906 0)"/>
    <use xlink:href="#DejaVuSans-72" transform="translate(740.230469 0)"/>
    <use xlink:href="#DejaVuSans-61" transform="translate(781.34375 0)"/>
    <use xlink:href="#DejaVuSans-74" transform="translate(842.623047 0)"/>
    <use xlink:href="#DejaVuSans-69" transform="translate(881.832031 0)"/>
    <use xlink:href="#DejaVuSans-6f" transform="translate(909.615234 0)"/>
    <use xlink:href="#DejaVuSans-6e" transform="translate(970.796875 0)"/>
    <use xlink:href="#DejaVuSans-3a" transform="translate(1034.175781 0)"/>
    <use xlink:href="#DejaVuSans-20" transform="translate(1067.867188 0)"/>
    <use xlink:href="#DejaVuSans-7e" transform="translate(1099.654297 0)"/>
    <use xlink:href="#DejaVuSans-35" transform="translate(1183.443359 0)"/>
    <use xlink:href="#DejaVuSans-36" transform="translate(1247.066406 0)"/>
    <use xlink:href="#DejaVuSans-30" transform="translate(1310.689453 0)"/>
    <use xlink:href="#DejaVuSans-d7" transform="translate(1374.3125 0)"/>
    <use xlink:href="#DejaVuSans-20" transform="translate(1458.101562 0)"/>
    <use xlink:href="#DejaVuSans-64" transform="translate(1489.888672 0)"/>
    <use xlink:href="#DejaVuSans-72" transform="translate(1553.365234 0)"/>
    <use xlink:href="#DejaVuSans-69" transform="translate(1594.478516 0)"/>
    <use xlink:href="#DejaVuSans-66" transform="translate(1622.261719 0)"/>
    <use xlink:href="#DejaVuSans-74" transform="translate(1655.716797 0)"/>
    <use xlink:href="#DejaVuSans-20" transform="translate(1694.925781 0)"/>
    <use xlink:href="#DejaVuSans-72" transform="translate(1726.712891 0)"/>
    <use xlink:href="#DejaVuSans-65" transform="translate(1765.576172 0)"/>
    <use xlink:href="#DejaVuSans-64" transform="translate(1827.099609 0)"/>
    <use xlink:href="#DejaVuSans-75" transform="translate(1890.576172 0)"/>
    <use xlink:href="#DejaVuSans-63" transform="translate(1953.955078 0)"/>
    <use xlink:href="#DejaVuSans-74" transform="translate(2008.935547 0)"/>
    <use xlink:href="#DejaVuSans-69" transform="translate(2048.144531 0)"/>
    <use xlink:href="#DejaVuSans-6f" transform="translate(2075.927734 0)"/>
    <use xlink:href="#DejaVuSans-6e" transform="translate(2137.109375 0)"/>
    <use xlink:href="#DejaVuSans-20" transform="translate(2200.488281 0)"/>
    <use xlink:href="#DejaVuSans-28" transform="translate(2232.275391 0)"/>
    <use xlink:href="#DejaVuSans-54" transform="translate(2271.289062 0)"/>
    <use xlink:href="#DejaVuSans-55" transform="translate(2332.373047 0)"/>
    <use xlink:href="#DejaVuSans-47" transform="translate(2405.566406 0)"/>
    <use xlink:href="#DejaVuSans-52" transform="translate(2483.056641 0)"/>
    <use xlink:href="#DejaVuSans-55" transform="translate(2552.539062 0)"/>
    <use xlink:href="#DejaVuSans-4c" transform="translate(2625.732422 0)"/>
    <use xlink:href="#DejaVuSans-2c" transform="translate(2681.445312 0)"/>
    <use xlink:href="#DejaVuSans-20" transform="translate(2713.232422 0)"/>
    <use xlink:href="#DejaVuSans-63" transform="translate(2745.019531 0)"/>
    <use xlink:href="#DejaVuSans-6c" transform="translate(2800 0)"/>
    <use xlink:href="#DejaVuSans-6f" transform="translate(2827.783203 0)"/>
    <use xlink:href="#DejaVuSans-6e" transform="translate(2888.964844 0)"/>
    <use xlink:href="#DejaVuSans-65" transform="translate(2952.34375 0)"/>
    <use xlink:href="#DejaVuSans-20" transform="translate(3013.867188 0)"/>
    <use xlink:href="#DejaVuSans-4d" transform="translate(3045.654297 0)"/>
    <use xlink:href="#DejaVuSans-50" transform="translate(3131.933594 0)"/>
    <use xlink:href="#DejaVuSans-55" transform="translate(3192.236328 0)"/>
    <use xlink:href="#DejaVuSans-2d" transform="translate(3265.429688 0)"/>
    <use xlink:href="#DejaVuSans-39" transform="translate(3301.513672 0)"/>
    <use xlink:href="#DejaVuSans-32" transform="translate(3365.136719 0)"/>
    <use xlink:href="#DejaVuSans-35" transform="translate(3428.759766 0)"/>
    <use xlink:href="#DejaVuSans-30" transform="translate(3492.382812 0)"/>
    <use xlink:href="#DejaVuSans-20" transform="translate(3556.005859 0)"/>
    <use xlink:href="#DejaVuSans-64" transform="translate(3587.792969 0)"/>
    <use xlink:href="#DejaVuSans-69" transform="translate(3651.269531 0)"/>
    <use xlink:href="#DejaVuSans-65" transform="translate(3679.052734 0)"/>
    <use xlink:href="#DejaVuSans-2c" transform="translate(3740.576172 0)"/>
    <use xlink:href="#DejaVuSans-20" transform="translate(3772.363281 0)"/>
    <use xlink:href="#DejaVuSans-6d" transform="translate(3804.150391 0)"/>
    <use xlink:href="#DejaVuSans-65" transform="translate(3901.5625 0)"/>
    <use xlink:href="#DejaVuSans-61" transform="translate(3963.085938 0)"/>
    <use xlink:href="#DejaVuSans-73" transform="translate(4024.365234 0)"/>
    <use xlink:href="#DejaVuSans-75" transform="translate(4076.464844 0)"/>
    <use xlink:href="#DejaVuSans-72" transform="translate(4139.84375 0)"/>
    <use xlink:href="#DejaVuSans-65" transform="translate(4178.707031 0)"/>
    <use xlink:href="#DejaVuSans-64" transform="translate(4240.230469 0)"/>
    <use xlink:href="#DejaVuSans-29" transform="translate(4303.707031 0)"/>
   </g>
  </g>
 </g>
 <defs>
  <clipPath id="pffa034b4d6">
   <rect x="61.707813" y="71.16" width="329.919265" height="217.216"/>
  </clipPath>
  <clipPath id="pe8e18610d7">
   <rect x="442.992183" y="71.16" width="329.919265" height="217.216"/>
  </clipPath>
 </defs>
</svg>
